<svg version="1.1" viewBox="0.0 0.0 720.0 652.7244094488188" fill="none" stroke="none" stroke-linecap="square" stroke-miterlimit="10" xmlns:xlink="http://www.w3.org/1999/xlink" xmlns="http://www.w3.org/2000/svg"><clipPath id="p.0"><path d="m0 0l720.0 0l0 652.7244l-720.0 0l0 -652.7244z" clip-rule="nonzero"/></clipPath><g clip-path="url(#p.0)"><path fill="#000000" fill-opacity="0.0" d="m0 0l720.0 0l0 652.7244l-720.0 0z" fill-rule="evenodd"/><path fill="#cfe2f3" d="m-0.002624672 -0.07874016l720.4094 0l0 652.8819l-720.4094 0z" fill-rule="evenodd"/><path fill="#000000" d="m16.3255 27.106882q-2.890625 0 -4.515625 -1.578125q-1.625 -1.59375 -1.625 -4.515625l0 -7.234374l3.703125 0l0 7.124999q0 1.6875 0.65625 2.421875q0.671875 0.71875 1.828125 0.71875q1.15625 0 1.796875 -0.71875q0.65625 -0.734375 0.65625 -2.421875l0 -7.124999l3.640625 0l0 7.234374q0 2.921875 -1.625 4.515625q-1.625 1.578125 -4.515625 1.578125zm15.054443 -10.546875q1.1875 0 2.125 0.484375q0.953125 0.46875 1.5 1.46875q0.5625 0.984375 0.5625 2.546875l0 5.78125l-3.546875 0l0 -5.203125q0 -1.078125 -0.4375 -1.578125q-0.4375 -0.5 -1.21875 -0.5q-0.5625 0 -1.03125 0.265625q-0.46875 0.25 -0.734375 0.765625q-0.25 0.515625 -0.25 1.359375l0 4.890625l-3.546875 0l0 -10.109375l3.375 0l0 2.875l-0.65625 -0.84375q0.578125 -1.09375 1.578125 -1.640625q1.015625 -0.5625 2.28125 -0.5625zm11.7091675 10.453125q-1.6875 0 -3.0 -0.671875q-1.3125 -0.671875 -2.0625 -1.859375q-0.75 -1.1875 -0.75 -2.71875q0 -1.53125 0.75 -2.703125q0.75 -1.171875 2.0625 -1.828125q1.3125 -0.671875 3.0 -0.671875q1.703125 0 2.953125 0.734375q1.25 0.71875 1.78125 2.046875l-2.75 1.40625q-0.34375 -0.71875 -0.875 -1.046875q-0.515625 -0.328125 -1.140625 -0.328125q-0.609375 0 -1.109375 0.28125q-0.5 0.28125 -0.796875 0.8125q-0.296875 0.53125 -0.296875 1.296875q0 0.78125 0.296875 1.328125q0.296875 0.546875 0.796875 0.828125q0.5 0.265625 1.109375 0.265625q0.625 0 1.140625 -0.3125q0.53125 -0.328125 0.875 -1.046875l2.75 1.40625q-0.53125 1.328125 -1.78125 2.0625q-1.25 0.71875 -2.953125 0.71875zm11.043976 0q-1.671875 0 -2.953125 -0.671875q-1.28125 -0.671875 -2.03125 -1.859375q-0.734375 -1.1875 -0.734375 -2.71875q0 -1.53125 0.734375 -2.703125q0.75 -1.171875 2.03125 -1.828125q1.28125 -0.671875 2.953125 -0.671875q1.65625 0 2.953125 0.671875q1.296875 0.65625 2.015625 1.828125q0.734375 1.171875 0.734375 2.703125q0 1.53125 -0.734375 2.71875q-0.71875 1.1875 -2.015625 1.859375q-1.296875 0.671875 -2.953125 0.671875zm0 -2.828125q0.609375 0 1.078125 -0.265625q0.484375 -0.28125 0.765625 -0.828125q0.28125 -0.5625 0.28125 -1.328125q0 -0.765625 -0.28125 -1.296875q-0.28125 -0.53125 -0.765625 -0.8125q-0.46875 -0.28125 -1.078125 -0.28125q-0.609375 0 -1.078125 0.28125q-0.46875 0.28125 -0.765625 0.8125q-0.296875 0.53125 -0.296875 1.296875q0 0.765625 0.296875 1.328125q0.296875 0.546875 0.765625 0.828125q0.46875 0.265625 1.078125 0.265625zm13.925064 -7.625q1.1875 0 2.125 0.484375q0.953125 0.46875 1.5 1.46875q0.5625 0.984375 0.5625 2.546875l0 5.78125l-3.546875 0l0 -5.203125q0 -1.078125 -0.4375 -1.578125q-0.4375 -0.5 -1.21875 -0.5q-0.5625 0 -1.03125 0.265625q-0.46875 0.25 -0.734375 0.765625q-0.25 0.515625 -0.25 1.359375l0 4.890625l-3.546875 0l0 -10.109375l3.375 0l0 2.875l-0.65625 -0.84375q0.578125 -1.09375 1.578125 -1.640625q1.015625 -0.5625 2.28125 -0.5625zm10.922256 10.453125q-1.9375 0 -3.03125 -0.953125q-1.078125 -0.96875 -1.078125 -2.90625l0 -8.687499l3.546875 0l0 8.640624q0 0.546875 0.296875 0.859375q0.296875 0.296875 0.765625 0.296875q0.640625 0 1.078125 -0.3125l0.875 2.484375q-0.4375 0.296875 -1.09375 0.4375q-0.65625 0.140625 -1.359375 0.140625zm-5.578125 -7.265625l0 -2.640625l7.328125 0l0 2.640625l-7.328125 0zm9.40184 7.09375l0 -10.109375l3.375 0l0 2.953125l-0.5 -0.84375q0.4375 -1.140625 1.4375 -1.703125q1.015625 -0.578125 2.453125 -0.578125l0 3.1875q-0.234375 -0.03125 -0.421875 -0.03125q-0.171875 -0.015625 -0.375 -0.015625q-1.078125 0 -1.75 0.59375q-0.671875 0.578125 -0.671875 1.90625l0 4.640625l-3.546875 0zm13.212189 0.171875q-1.671875 0 -2.953125 -0.671875q-1.28125 -0.671875 -2.03125 -1.859375q-0.734375 -1.1875 -0.734375 -2.71875q0 -1.53125 0.734375 -2.703125q0.75 -1.171875 2.03125 -1.828125q1.28125 -0.671875 2.953125 -0.671875q1.65625 0 2.953125 0.671875q1.296875 0.65625 2.015625 1.828125q0.734375 1.171875 0.734375 2.703125q0 1.53125 -0.734375 2.71875q-0.71875 1.1875 -2.015625 1.859375q-1.296875 0.671875 -2.953125 0.671875zm0 -2.828125q0.609375 0 1.078125 -0.265625q0.484375 -0.28125 0.765625 -0.828125q0.28125 -0.5625 0.28125 -1.328125q0 -0.765625 -0.28125 -1.296875q-0.28125 -0.53125 -0.765625 -0.8125q-0.46875 -0.28125 -1.078125 -0.28125q-0.609375 0 -1.078125 0.28125q-0.46875 0.28125 -0.765625 0.8125q-0.296875 0.53125 -0.296875 1.296875q0 0.765625 0.296875 1.328125q0.296875 0.546875 0.765625 0.828125q0.46875 0.265625 1.078125 0.265625zm7.346939 2.65625l0 -13.843749l3.546875 0l0 13.843749l-3.546875 0zm5.8394012 0l0 -13.843749l3.546875 0l0 13.843749l-3.546875 0zm11.136276 0.171875q-1.796875 0 -3.125 -0.671875q-1.328125 -0.6875 -2.078125 -1.875q-0.734375 -1.1875 -0.734375 -2.703125q0 -1.5 0.71875 -2.6875q0.71875 -1.1875 1.984375 -1.84375q1.28125 -0.671875 2.859375 -0.671875q1.5 0 2.71875 0.609375q1.234375 0.609375 1.953125 1.78125q0.734375 1.171875 0.734375 2.859375q0 0.1875 -0.015625 0.4375q-0.015625 0.234375 -0.03125 0.4375l-8.0 0l0 -1.875l6.109375 0l-1.34375 0.53125q0.015625 -0.6875 -0.25 -1.1875q-0.265625 -0.515625 -0.75 -0.796875q-0.46875 -0.28125 -1.109375 -0.28125q-0.625 0 -1.109375 0.28125q-0.46875 0.28125 -0.734375 0.796875q-0.265625 0.515625 -0.265625 1.203125l0 0.546875q0 0.734375 0.3125 1.28125q0.3125 0.546875 0.890625 0.84375q0.578125 0.28125 1.375 0.28125q0.75 0 1.28125 -0.21875q0.53125 -0.21875 1.046875 -0.671875l1.875 1.953125q-0.734375 0.796875 -1.796875 1.21875q-1.0625 0.421875 -2.515625 0.421875zm11.086685 0q-1.390625 0 -2.515625 -0.640625q-1.125 -0.65625 -1.796875 -1.8125q-0.671875 -1.171875 -0.671875 -2.796875q0 -1.59375 0.671875 -2.765625q0.671875 -1.171875 1.796875 -1.796875q1.125 -0.640625 2.515625 -0.640625q1.296875 0 2.203125 0.5625q0.90625 0.5625 1.375 1.71875q0.46875 1.15625 0.46875 2.921875q0 1.8125 -0.453125 2.96875q-0.453125 1.15625 -1.34375 1.71875q-0.890625 0.5625 -2.25 0.5625zm0.734375 -2.828125q0.609375 0 1.078125 -0.265625q0.46875 -0.28125 0.75 -0.828125q0.28125 -0.5625 0.28125 -1.328125q0 -0.765625 -0.28125 -1.296875q-0.28125 -0.53125 -0.75 -0.8125q-0.46875 -0.28125 -1.078125 -0.28125q-0.609375 0 -1.09375 0.28125q-0.46875 0.28125 -0.75 0.8125q-0.28125 0.53125 -0.28125 1.296875q0 0.765625 0.28125 1.328125q0.28125 0.546875 0.75 0.828125q0.484375 0.265625 1.09375 0.265625zm2.21875 2.65625l0 -1.734375l0.03125 -3.34375l-0.1875 -3.328125l0 -5.437499l3.546875 0l0 13.843749l-3.390625 0zm16.388535 0.171875q-1.796875 0 -3.125 -0.671875q-1.328125 -0.6875 -2.078125 -1.875q-0.734375 -1.1875 -0.734375 -2.703125q0 -1.5 0.71875 -2.6875q0.71875 -1.1875 1.984375 -1.84375q1.28125 -0.671875 2.859375 -0.671875q1.5 0 2.71875 0.609375q1.234375 0.609375 1.953125 1.78125q0.734375 1.171875 0.734375 2.859375q0 0.1875 -0.015625 0.4375q-0.015625 0.234375 -0.03125 0.4375l-8.0 0l0 -1.875l6.109375 0l-1.34375 0.53125q0.015625 -0.6875 -0.25 -1.1875q-0.265625 -0.515625 -0.75 -0.796875q-0.46875 -0.28125 -1.109375 -0.28125q-0.625 0 -1.109375 0.28125q-0.46875 0.28125 -0.734375 0.796875q-0.265625 0.515625 -0.265625 1.203125l0 0.546875q0 0.734375 0.3125 1.28125q0.3125 0.546875 0.890625 0.84375q0.578125 0.28125 1.375 0.28125q0.75 0 1.28125 -0.21875q0.53125 -0.21875 1.046875 -0.671875l1.875 1.953125q-0.734375 0.796875 -1.796875 1.21875q-1.0625 0.421875 -2.515625 0.421875zm5.2285614 -0.171875l4.640625 -6.09375l-0.078125 2.015625l-4.453125 -6.03125l3.984375 0l2.5 3.5625l-1.484375 0.078125l2.640625 -3.640625l3.75 0l-4.453125 5.890625l0 -1.9375l4.59375 6.15625l-4.046875 0l-2.625 -3.8125l1.5 0.21875l-2.625 3.59375l-3.84375 0zm19.079468 0.171875q-1.28125 0 -2.203125 -0.5625q-0.90625 -0.578125 -1.390625 -1.71875q-0.46875 -1.15625 -0.46875 -2.953125q0 -1.796875 0.4375 -2.9375q0.453125 -1.15625 1.359375 -1.71875q0.90625 -0.5625 2.265625 -0.5625q1.375 0 2.5 0.640625q1.140625 0.640625 1.796875 1.8125q0.671875 1.171875 0.671875 2.765625q0 1.609375 -0.671875 2.796875q-0.65625 1.171875 -1.796875 1.8125q-1.125 0.625 -2.5 0.625zm-6.359375 3.453125l0 -13.734375l3.375 0l0 1.71875l-0.015625 3.328125l0.1875 3.359375l0 5.328125l-3.546875 0zm5.609375 -6.28125q0.59375 0 1.0625 -0.265625q0.484375 -0.28125 0.765625 -0.828125q0.296875 -0.546875 0.296875 -1.3125q0 -0.765625 -0.296875 -1.296875q-0.28125 -0.546875 -0.765625 -0.828125q-0.46875 -0.28125 -1.0625 -0.28125q-0.59375 0 -1.078125 0.28125q-0.46875 0.28125 -0.765625 0.828125q-0.28125 0.53125 -0.28125 1.296875q0 0.765625 0.28125 1.3125q0.296875 0.546875 0.765625 0.828125q0.484375 0.265625 1.078125 0.265625zm12.653595 2.828125q-1.796875 0 -3.125 -0.671875q-1.328125 -0.6875 -2.078125 -1.875q-0.734375 -1.1875 -0.734375 -2.703125q0 -1.5 0.71875 -2.6875q0.71875 -1.1875 1.984375 -1.84375q1.28125 -0.671875 2.859375 -0.671875q1.5 0 2.71875 0.609375q1.234375 0.609375 1.953125 1.78125q0.734375 1.171875 0.734375 2.859375q0 0.1875 -0.015625 0.4375q-0.015625 0.234375 -0.03125 0.4375l-8.0 0l0 -1.875l6.109375 0l-1.34375 0.53125q0.015625 -0.6875 -0.25 -1.1875q-0.265625 -0.515625 -0.75 -0.796875q-0.46875 -0.28125 -1.109375 -0.28125q-0.625 0 -1.109375 0.28125q-0.46875 0.28125 -0.734375 0.796875q-0.265625 0.515625 -0.265625 1.203125l0 0.546875q0 0.734375 0.3125 1.28125q0.3125 0.546875 0.890625 0.84375q0.578125 0.28125 1.375 0.28125q0.75 0 1.28125 -0.21875q0.53125 -0.21875 1.046875 -0.671875l1.875 1.953125q-0.734375 0.796875 -1.796875 1.21875q-1.0625 0.421875 -2.515625 0.421875zm6.680435 -0.171875l0 -10.109375l3.375 0l0 2.953125l-0.5 -0.84375q0.4375 -1.140625 1.4375 -1.703125q1.015625 -0.578125 2.453125 -0.578125l0 3.1875q-0.234375 -0.03125 -0.421875 -0.03125q-0.171875 -0.015625 -0.375 -0.015625q-1.078125 0 -1.75 0.59375q-0.671875 0.578125 -0.671875 1.90625l0 4.640625l-3.546875 0zm8.227386 0l0 -10.109375l3.546875 0l0 10.109375l-3.546875 0zm1.765625 -11.234374q-0.96875 0 -1.5625 -0.53125q-0.59375 -0.546875 -0.59375 -1.34375q0 -0.8125 0.59375 -1.34375q0.59375 -0.546875 1.5625 -0.546875q0.96875 0 1.5625 0.515625q0.609375 0.515625 0.609375 1.3125q0 0.84375 -0.59375 1.390625q-0.59375 0.546875 -1.578125 0.546875zm17.245651 0.95312405q1.171875 0 2.09375 0.484375q0.921875 0.46875 1.453125 1.46875q0.53125 0.984375 0.53125 2.546875l0 5.78125l-3.546875 0l0 -5.203125q0 -1.078125 -0.40625 -1.578125q-0.40625 -0.5 -1.109375 -0.5q-0.515625 0 -0.921875 0.25q-0.40625 0.234375 -0.640625 0.734375q-0.21875 0.5 -0.21875 1.28125l0 5.015625l-3.546875 0l0 -5.203125q0 -1.078125 -0.40625 -1.578125q-0.390625 -0.5 -1.125 -0.5q-0.515625 0 -0.921875 0.25q-0.390625 0.234375 -0.625 0.734375q-0.234375 0.5 -0.234375 1.28125l0 5.015625l-3.546875 0l0 -10.109375l3.375 0l0 2.8125l-0.671875 -0.796875q0.5625 -1.078125 1.53125 -1.625q0.96875 -0.5625 2.15625 -0.5625q1.375 0 2.40625 0.703125q1.03125 0.703125 1.390625 2.171875l-1.15625 -0.25q0.53125 -1.21875 1.625 -1.921875q1.09375 -0.703125 2.515625 -0.703125zm11.75145 10.453125q-1.796875 0 -3.125 -0.671875q-1.328125 -0.6875 -2.078125 -1.875q-0.734375 -1.1875 -0.734375 -2.703125q0 -1.5 0.71875 -2.6875q0.71875 -1.1875 1.984375 -1.84375q1.28125 -0.671875 2.859375 -0.671875q1.5 0 2.71875 0.609375q1.234375 0.609375 1.953125 1.78125q0.734375 1.171875 0.734375 2.859375q0 0.1875 -0.015625 0.4375q-0.015625 0.234375 -0.03125 0.4375l-8.0 0l0 -1.875l6.109375 0l-1.34375 0.53125q0.015625 -0.6875 -0.25 -1.1875q-0.265625 -0.515625 -0.75 -0.796875q-0.46875 -0.28125 -1.109375 -0.28125q-0.625 0 -1.109375 0.28125q-0.46875 0.28125 -0.734375 0.796875q-0.265625 0.515625 -0.265625 1.203125l0 0.546875q0 0.734375 0.3125 1.28125q0.3125 0.546875 0.890625 0.84375q0.578125 0.28125 1.375 0.28125q0.75 0 1.28125 -0.21875q0.53125 -0.21875 1.046875 -0.671875l1.875 1.953125q-0.734375 0.796875 -1.796875 1.21875q-1.0625 0.421875 -2.515625 0.421875zm13.25856 -10.453125q1.1875 0 2.125 0.484375q0.953125 0.46875 1.5 1.46875q0.5625 0.984375 0.5625 2.546875l0 5.78125l-3.546875 0l0 -5.203125q0 -1.078125 -0.4375 -1.578125q-0.4375 -0.5 -1.21875 -0.5q-0.5625 0 -1.03125 0.265625q-0.46875 0.25 -0.734375 0.765625q-0.25 0.515625 -0.25 1.359375l0 4.890625l-3.546875 0l0 -10.109375l3.375 0l0 2.875l-0.65625 -0.84375q0.578125 -1.09375 1.578125 -1.640625q1.015625 -0.5625 2.28125 -0.5625zm10.922256 10.453125q-1.9375 0 -3.03125 -0.953125q-1.078125 -0.96875 -1.078125 -2.90625l0 -8.687499l3.546875 0l0 8.640624q0 0.546875 0.296875 0.859375q0.296875 0.296875 0.765625 0.296875q0.640625 0 1.078125 -0.3125l0.875 2.484375q-0.4375 0.296875 -1.09375 0.4375q-0.65625 0.140625 -1.359375 0.140625zm-5.578125 -7.265625l0 -2.640625l7.328125 0l0 2.640625l-7.328125 0z" fill-rule="nonzero"/><path fill="#000000" d="m16.809875 340.7069q-1.546875 0 -2.859375 -0.5q-1.3125 -0.5 -2.28125 -1.40625q-0.953125 -0.921875 -1.5 -2.15625q-0.53125 -1.234375 -0.53125 -2.734375q0 -1.484375 0.53125 -2.71875q0.546875 -1.25 1.5 -2.15625q0.96875 -0.921875 2.28125 -1.421875q1.3125 -0.5 2.859375 -0.5q1.8125 0 3.234375 0.640625q1.4375 0.640625 2.390625 1.828125l-2.359375 2.125q-0.625 -0.75 -1.390625 -1.140625q-0.75 -0.390625 -1.6875 -0.390625q-0.796875 0 -1.46875 0.265625q-0.671875 0.265625 -1.15625 0.765625q-0.46875 0.484375 -0.75 1.171875q-0.265625 0.6875 -0.265625 1.53125q0 0.84375 0.265625 1.53125q0.28125 0.6875 0.75 1.1875q0.484375 0.484375 1.15625 0.75q0.671875 0.265625 1.46875 0.265625q0.9375 0 1.6875 -0.390625q0.765625 -0.390625 1.390625 -1.140625l2.359375 2.125q-0.953125 1.171875 -2.390625 1.828125q-1.421875 0.640625 -3.234375 0.640625zm11.8572235 -0.09375q-1.671875 0 -2.953125 -0.671875q-1.28125 -0.671875 -2.03125 -1.859375q-0.734375 -1.1875 -0.734375 -2.71875q0 -1.53125 0.734375 -2.703125q0.75 -1.171875 2.03125 -1.828125q1.28125 -0.671875 2.953125 -0.671875q1.65625 0 2.953125 0.671875q1.296875 0.65625 2.015625 1.828125q0.734375 1.171875 0.734375 2.703125q0 1.53125 -0.734375 2.71875q-0.71875 1.1875 -2.015625 1.859375q-1.296875 0.671875 -2.953125 0.671875zm0 -2.828125q0.609375 0 1.078125 -0.265625q0.484375 -0.28125 0.765625 -0.828125q0.28125 -0.5625 0.28125 -1.328125q0 -0.765625 -0.28125 -1.296875q-0.28125 -0.53125 -0.765625 -0.8125q-0.46875 -0.28125 -1.078125 -0.28125q-0.609375 0 -1.078125 0.28125q-0.46875 0.28125 -0.765625 0.8125q-0.296875 0.53125 -0.296875 1.296875q0 0.765625 0.296875 1.328125q0.296875 0.546875 0.765625 0.828125q0.46875 0.265625 1.078125 0.265625zm13.925064 -7.625q1.1875 0 2.125 0.484375q0.953125 0.46875 1.5 1.46875q0.5625 0.984375 0.5625 2.546875l0 5.78125l-3.546875 0l0 -5.203125q0 -1.078125 -0.4375 -1.578125q-0.4375 -0.5 -1.21875 -0.5q-0.5625 0 -1.03125 0.265625q-0.46875 0.25 -0.734375 0.765625q-0.25 0.515625 -0.25 1.359375l0 4.890625l-3.546875 0l0 -10.109375l3.375 0l0 2.875l-0.65625 -0.84375q0.578125 -1.09375 1.578125 -1.640625q1.015625 -0.5625 2.28125 -0.5625zm10.922256 10.453125q-1.9375 0 -3.03125 -0.953125q-1.078125 -0.96875 -1.078125 -2.90625l0 -8.6875l3.546875 0l0 8.640625q0 0.546875 0.296875 0.859375q0.296875 0.296875 0.765625 0.296875q0.640625 0 1.078125 -0.3125l0.875 2.484375q-0.4375 0.296875 -1.09375 0.4375q-0.65625 0.140625 -1.359375 0.140625zm-5.578125 -7.265625l0 -2.640625l7.328125 0l0 2.640625l-7.328125 0zm9.40184 7.09375l0 -10.109375l3.375 0l0 2.953125l-0.5 -0.84375q0.4375 -1.140625 1.4375 -1.703125q1.015625 -0.578125 2.453125 -0.578125l0 3.1875q-0.234375 -0.03125 -0.421875 -0.03125q-0.171875 -0.015625 -0.375 -0.015625q-1.078125 0 -1.75 0.59375q-0.671875 0.578125 -0.671875 1.90625l0 4.640625l-3.546875 0zm13.212189 0.171875q-1.671875 0 -2.953125 -0.671875q-1.28125 -0.671875 -2.03125 -1.859375q-0.734375 -1.1875 -0.734375 -2.71875q0 -1.53125 0.734375 -2.703125q0.75 -1.171875 2.03125 -1.828125q1.28125 -0.671875 2.953125 -0.671875q1.65625 0 2.953125 0.671875q1.296875 0.65625 2.015625 1.828125q0.734375 1.171875 0.734375 2.703125q0 1.53125 -0.734375 2.71875q-0.71875 1.1875 -2.015625 1.859375q-1.296875 0.671875 -2.953125 0.671875zm0 -2.828125q0.609375 0 1.078125 -0.265625q0.484375 -0.28125 0.765625 -0.828125q0.28125 -0.5625 0.28125 -1.328125q0 -0.765625 -0.28125 -1.296875q-0.28125 -0.53125 -0.765625 -0.8125q-0.46875 -0.28125 -1.078125 -0.28125q-0.609375 0 -1.078125 0.28125q-0.46875 0.28125 -0.765625 0.8125q-0.296875 0.53125 -0.296875 1.296875q0 0.765625 0.296875 1.328125q0.296875 0.546875 0.765625 0.828125q0.46875 0.265625 1.078125 0.265625zm7.346939 2.65625l0 -13.84375l3.546875 0l0 13.84375l-3.546875 0zm5.8394012 0l0 -13.84375l3.546875 0l0 13.84375l-3.546875 0zm11.136276 0.171875q-1.796875 0 -3.125 -0.671875q-1.328125 -0.6875 -2.078125 -1.875q-0.734375 -1.1875 -0.734375 -2.703125q0 -1.5 0.71875 -2.6875q0.71875 -1.1875 1.984375 -1.84375q1.28125 -0.671875 2.859375 -0.671875q1.5 0 2.71875 0.609375q1.234375 0.609375 1.953125 1.78125q0.734375 1.171875 0.734375 2.859375q0 0.1875 -0.015625 0.4375q-0.015625 0.234375 -0.03125 0.4375l-8.0 0l0 -1.875l6.109375 0l-1.34375 0.53125q0.015625 -0.6875 -0.25 -1.1875q-0.265625 -0.515625 -0.75 -0.796875q-0.46875 -0.28125 -1.109375 -0.28125q-0.625 0 -1.109375 0.28125q-0.46875 0.28125 -0.734375 0.796875q-0.265625 0.515625 -0.265625 1.203125l0 0.546875q0 0.734375 0.3125 1.28125q0.3125 0.546875 0.890625 0.84375q0.578125 0.28125 1.375 0.28125q0.75 0 1.28125 -0.21875q0.53125 -0.21875 1.046875 -0.671875l1.875 1.953125q-0.734375 0.796875 -1.796875 1.21875q-1.0625 0.421875 -2.515625 0.421875zm11.086685 0q-1.390625 0 -2.515625 -0.640625q-1.125 -0.65625 -1.796875 -1.8125q-0.671875 -1.171875 -0.671875 -2.796875q0 -1.59375 0.671875 -2.765625q0.671875 -1.171875 1.796875 -1.796875q1.125 -0.640625 2.515625 -0.640625q1.296875 0 2.203125 0.5625q0.90625 0.5625 1.375 1.71875q0.46875 1.15625 0.46875 2.921875q0 1.8125 -0.453125 2.96875q-0.453125 1.15625 -1.34375 1.71875q-0.890625 0.5625 -2.25 0.5625zm0.734375 -2.828125q0.609375 0 1.078125 -0.265625q0.46875 -0.28125 0.75 -0.828125q0.28125 -0.5625 0.28125 -1.328125q0 -0.765625 -0.28125 -1.296875q-0.28125 -0.53125 -0.75 -0.8125q-0.46875 -0.28125 -1.078125 -0.28125q-0.609375 0 -1.09375 0.28125q-0.46875 0.28125 -0.75 0.8125q-0.28125 0.53125 -0.28125 1.296875q0 0.765625 0.28125 1.328125q0.28125 0.546875 0.75 0.828125q0.484375 0.265625 1.09375 0.265625zm2.21875 2.65625l0 -1.734375l0.03125 -3.34375l-0.1875 -3.328125l0 -5.4375l3.546875 0l0 13.84375l-3.390625 0zm16.388535 0.171875q-1.796875 0 -3.125 -0.671875q-1.328125 -0.6875 -2.078125 -1.875q-0.734375 -1.1875 -0.734375 -2.703125q0 -1.5 0.71875 -2.6875q0.71875 -1.1875 1.984375 -1.84375q1.28125 -0.671875 2.859375 -0.671875q1.5 0 2.71875 0.609375q1.234375 0.609375 1.953125 1.78125q0.734375 1.171875 0.734375 2.859375q0 0.1875 -0.015625 0.4375q-0.015625 0.234375 -0.03125 0.4375l-8.0 0l0 -1.875l6.109375 0l-1.34375 0.53125q0.015625 -0.6875 -0.25 -1.1875q-0.265625 -0.515625 -0.75 -0.796875q-0.46875 -0.28125 -1.109375 -0.28125q-0.625 0 -1.109375 0.28125q-0.46875 0.28125 -0.734375 0.796875q-0.265625 0.515625 -0.265625 1.203125l0 0.546875q0 0.734375 0.3125 1.28125q0.3125 0.546875 0.890625 0.84375q0.578125 0.28125 1.375 0.28125q0.75 0 1.28125 -0.21875q0.53125 -0.21875 1.046875 -0.671875l1.875 1.953125q-0.734375 0.796875 -1.796875 1.21875q-1.0625 0.421875 -2.515625 0.421875zm5.2285614 -0.171875l4.640625 -6.09375l-0.078125 2.015625l-4.453125 -6.03125l3.984375 0l2.5 3.5625l-1.484375 0.078125l2.640625 -3.640625l3.75 0l-4.453125 5.890625l0 -1.9375l4.59375 6.15625l-4.046875 0l-2.625 -3.8125l1.5 0.21875l-2.625 3.59375l-3.84375 0zm19.079468 0.171875q-1.28125 0 -2.203125 -0.5625q-0.90625 -0.578125 -1.390625 -1.71875q-0.46875 -1.15625 -0.46875 -2.953125q0 -1.796875 0.4375 -2.9375q0.453125 -1.15625 1.359375 -1.71875q0.90625 -0.5625 2.265625 -0.5625q1.375 0 2.5 0.640625q1.140625 0.640625 1.796875 1.8125q0.671875 1.171875 0.671875 2.765625q0 1.609375 -0.671875 2.796875q-0.65625 1.171875 -1.796875 1.8125q-1.125 0.625 -2.5 0.625zm-6.359375 3.453125l0 -13.734375l3.375 0l0 1.71875l-0.015625 3.328125l0.1875 3.359375l0 5.328125l-3.546875 0zm5.609375 -6.28125q0.59375 0 1.0625 -0.265625q0.484375 -0.28125 0.765625 -0.828125q0.296875 -0.546875 0.296875 -1.3125q0 -0.765625 -0.296875 -1.296875q-0.28125 -0.546875 -0.765625 -0.828125q-0.46875 -0.28125 -1.0625 -0.28125q-0.59375 0 -1.078125 0.28125q-0.46875 0.28125 -0.765625 0.828125q-0.28125 0.53125 -0.28125 1.296875q0 0.765625 0.28125 1.3125q0.296875 0.546875 0.765625 0.828125q0.484375 0.265625 1.078125 0.265625zm12.653595 2.828125q-1.796875 0 -3.125 -0.671875q-1.328125 -0.6875 -2.078125 -1.875q-0.734375 -1.1875 -0.734375 -2.703125q0 -1.5 0.71875 -2.6875q0.71875 -1.1875 1.984375 -1.84375q1.28125 -0.671875 2.859375 -0.671875q1.5 0 2.71875 0.609375q1.234375 0.609375 1.953125 1.78125q0.734375 1.171875 0.734375 2.859375q0 0.1875 -0.015625 0.4375q-0.015625 0.234375 -0.03125 0.4375l-8.0 0l0 -1.875l6.109375 0l-1.34375 0.53125q0.015625 -0.6875 -0.25 -1.1875q-0.265625 -0.515625 -0.75 -0.796875q-0.46875 -0.28125 -1.109375 -0.28125q-0.625 0 -1.109375 0.28125q-0.46875 0.28125 -0.734375 0.796875q-0.265625 0.515625 -0.265625 1.203125l0 0.546875q0 0.734375 0.3125 1.28125q0.3125 0.546875 0.890625 0.84375q0.578125 0.28125 1.375 0.28125q0.75 0 1.28125 -0.21875q0.53125 -0.21875 1.046875 -0.671875l1.875 1.953125q-0.734375 0.796875 -1.796875 1.21875q-1.0625 0.421875 -2.515625 0.421875zm6.680435 -0.171875l0 -10.109375l3.375 0l0 2.953125l-0.5 -0.84375q0.4375 -1.140625 1.4375 -1.703125q1.015625 -0.578125 2.453125 -0.578125l0 3.1875q-0.234375 -0.03125 -0.421875 -0.03125q-0.171875 -0.015625 -0.375 -0.015625q-1.078125 0 -1.75 0.59375q-0.671875 0.578125 -0.671875 1.90625l0 4.640625l-3.546875 0zm8.227386 0l0 -10.109375l3.546875 0l0 10.109375l-3.546875 0zm1.765625 -11.234375q-0.96875 0 -1.5625 -0.53125q-0.59375 -0.546875 -0.59375 -1.34375q0 -0.8125 0.59375 -1.34375q0.59375 -0.546875 1.5625 -0.546875q0.96875 0 1.5625 0.515625q0.609375 0.515625 0.609375 1.3125q0 0.84375 -0.59375 1.390625q-0.59375 0.546875 -1.578125 0.546875zm17.245651 0.953125q1.171875 0 2.09375 0.484375q0.921875 0.46875 1.453125 1.46875q0.53125 0.984375 0.53125 2.546875l0 5.78125l-3.546875 0l0 -5.203125q0 -1.078125 -0.40625 -1.578125q-0.40625 -0.5 -1.109375 -0.5q-0.515625 0 -0.921875 0.25q-0.40625 0.234375 -0.640625 0.734375q-0.21875 0.5 -0.21875 1.28125l0 5.015625l-3.546875 0l0 -5.203125q0 -1.078125 -0.40625 -1.578125q-0.390625 -0.5 -1.125 -0.5q-0.515625 0 -0.921875 0.25q-0.390625 0.234375 -0.625 0.734375q-0.234375 0.5 -0.234375 1.28125l0 5.015625l-3.546875 0l0 -10.109375l3.375 0l0 2.8125l-0.671875 -0.796875q0.5625 -1.078125 1.53125 -1.625q0.96875 -0.5625 2.15625 -0.5625q1.375 0 2.40625 0.703125q1.03125 0.703125 1.390625 2.171875l-1.15625 -0.25q0.53125 -1.21875 1.625 -1.921875q1.09375 -0.703125 2.515625 -0.703125zm11.75145 10.453125q-1.796875 0 -3.125 -0.671875q-1.328125 -0.6875 -2.078125 -1.875q-0.734375 -1.1875 -0.734375 -2.703125q0 -1.5 0.71875 -2.6875q0.71875 -1.1875 1.984375 -1.84375q1.28125 -0.671875 2.859375 -0.671875q1.5 0 2.71875 0.609375q1.234375 0.609375 1.953125 1.78125q0.734375 1.171875 0.734375 2.859375q0 0.1875 -0.015625 0.4375q-0.015625 0.234375 -0.03125 0.4375l-8.0 0l0 -1.875l6.109375 0l-1.34375 0.53125q0.015625 -0.6875 -0.25 -1.1875q-0.265625 -0.515625 -0.75 -0.796875q-0.46875 -0.28125 -1.109375 -0.28125q-0.625 0 -1.109375 0.28125q-0.46875 0.28125 -0.734375 0.796875q-0.265625 0.515625 -0.265625 1.203125l0 0.546875q0 0.734375 0.3125 1.28125q0.3125 0.546875 0.890625 0.84375q0.578125 0.28125 1.375 0.28125q0.75 0 1.28125 -0.21875q0.53125 -0.21875 1.046875 -0.671875l1.875 1.953125q-0.734375 0.796875 -1.796875 1.21875q-1.0625 0.421875 -2.515625 0.421875zm13.25856 -10.453125q1.1875 0 2.125 0.484375q0.953125 0.46875 1.5 1.46875q0.5625 0.984375 0.5625 2.546875l0 5.78125l-3.546875 0l0 -5.203125q0 -1.078125 -0.4375 -1.578125q-0.4375 -0.5 -1.21875 -0.5q-0.5625 0 -1.03125 0.265625q-0.46875 0.25 -0.734375 0.765625q-0.25 0.515625 -0.25 1.359375l0 4.890625l-3.546875 0l0 -10.109375l3.375 0l0 2.875l-0.65625 -0.84375q0.578125 -1.09375 1.578125 -1.640625q1.015625 -0.5625 2.28125 -0.5625zm10.922256 10.453125q-1.9375 0 -3.03125 -0.953125q-1.078125 -0.96875 -1.078125 -2.90625l0 -8.6875l3.546875 0l0 8.640625q0 0.546875 0.296875 0.859375q0.296875 0.296875 0.765625 0.296875q0.640625 0 1.078125 -0.3125l0.875 2.484375q-0.4375 0.296875 -1.09375 0.4375q-0.65625 0.140625 -1.359375 0.140625zm-5.578125 -7.265625l0 -2.640625l7.328125 0l0 2.640625l-7.328125 0z" fill-rule="nonzero"/><path fill="#000000" fill-opacity="0.0" d="m0 312.63815l720.8504 -2.11026" fill-rule="evenodd"/><path stroke="#000000" stroke-width="1.0" stroke-linejoin="round" stroke-linecap="butt" stroke-dasharray="1.0,3.0" d="m0 312.63815l720.8504 -2.11026" fill-rule="evenodd"/><g filter="url(#shadowFilter-p.1)"><use xlink:href="#p.1" transform="matrix(1.0 0.0 0.0 1.0 0.0 2.0)"/></g><defs><filter id="shadowFilter-p.1" filterUnits="userSpaceOnUse"><feGaussianBlur in="SourceAlpha" stdDeviation="2.0" result="blur"/><feComponentTransfer in="blur" color-interpolation-filters="sRGB"><feFuncR type="linear" slope="0" intercept="0.0"/><feFuncG type="linear" slope="0" intercept="0.0"/><feFuncB type="linear" slope="0" intercept="0.0"/><feFuncA type="linear" slope="0.5" intercept="0"/></feComponentTransfer></filter></defs><g id="p.1"><path fill="#efefef" d="m9.771948 250.4498l0 0c0 -25.89215 31.868864 -46.881897 71.1811 -46.881897l0 0c39.31224 0 71.18111 20.989746 71.18111 46.881897l0 0c0 25.89215 -31.868866 46.881897 -71.18111 46.881897l0 0c-39.312237 0 -71.1811 -20.989746 -71.1811 -46.881897z" fill-rule="evenodd"/><path stroke="#000000" stroke-width="2.0" stroke-linejoin="round" stroke-linecap="butt" d="m9.771948 250.4498l0 0c0 -25.89215 31.868864 -46.881897 71.1811 -46.881897l0 0c39.31224 0 71.18111 20.989746 71.18111 46.881897l0 0c0 25.89215 -31.868866 46.881897 -71.18111 46.881897l0 0c-39.312237 0 -71.1811 -20.989746 -71.1811 -46.881897z" fill-rule="evenodd"/><path fill="#000000" d="m44.673122 255.5298l0 -8.640625l-3.390625 0l0 -1.625l8.703125 0l0 1.625l-3.40625 0l0 8.640625l-1.90625 0zm6.382416 0l0 -7.828125l1.75 0l0 2.15625l-0.21875 -0.625q0.359375 -0.796875 1.109375 -1.203125q0.765625 -0.421875 1.890625 -0.421875l0 1.75q-0.125 -0.03125 -0.234375 -0.03125q-0.09375 -0.015625 -0.1875 -0.015625q-1.046875 0 -1.671875 0.609375q-0.609375 0.609375 -0.609375 1.8125l0 3.796875l-1.828125 0zm9.680862 0.109375q-1.296875 0 -2.28125 -0.515625q-0.96875 -0.53125 -1.5 -1.4375q-0.53125 -0.90625 -0.53125 -2.0625q0 -1.171875 0.515625 -2.078125q0.515625 -0.90625 1.421875 -1.421875q0.921875 -0.515625 2.109375 -0.515625q1.140625 0 2.03125 0.5q0.890625 0.5 1.40625 1.421875q0.5156212 0.90625 0.5156212 2.125q0 0.125 -0.015625 0.28125q0 0.140625 -0.015625 0.265625l-6.515621 0l0 -1.21875l5.546875 0l-0.71875 0.390625q0.015625 -0.6875 -0.28125 -1.1875q-0.296875 -0.515625 -0.796875 -0.8125q-0.5 -0.296875 -1.15625 -0.296875q-0.6875 0 -1.1875 0.296875q-0.5 0.296875 -0.796875 0.8125q-0.28125 0.515625 -0.28125 1.21875l0 0.296875q0 0.703125 0.3125 1.25q0.328125 0.546875 0.90625 0.84375q0.59375 0.28125 1.359375 0.28125q0.65625 0 1.1875 -0.203125q0.53125 -0.203125 0.9375 -0.640625l0.984375 1.125q-0.53125 0.609375 -1.328125 0.953125q-0.796875 0.328125 -1.828125 0.328125zm10.052471 -0.109375l0 -1.578125l-0.109375 -0.34375l0 -2.765625q0 -0.8125 -0.484375 -1.25q-0.484375 -0.453125 -1.46875 -0.453125q-0.65625 0 -1.296875 0.203125q-0.640625 0.203125 -1.078125 0.578125l-0.71875 -1.34375q0.640625 -0.484375 1.5 -0.71875q0.875 -0.25 1.8125 -0.25q1.703125 0 2.625 0.828125q0.9375 0.8125 0.9375 2.5l0 4.59375l-1.71875 0zm-2.46875 0.109375q-0.875 0 -1.546875 -0.296875q-0.65625 -0.3125 -1.015625 -0.84375q-0.359375 -0.53125 -0.359375 -1.21875q0 -0.65625 0.3125 -1.171875q0.328125 -0.53125 1.046875 -0.84375q0.71875 -0.3125 1.90625 -0.3125l2.265625 0l0 1.21875l-2.140625 0q-0.9375 0 -1.265625 0.3125q-0.3125 0.296875 -0.3125 0.734375q0 0.5 0.390625 0.796875q0.390625 0.28125 1.09375 0.28125q0.671875 0 1.203125 -0.296875q0.546875 -0.3125 0.78125 -0.921875l0.3125 1.109375q-0.265625 0.6875 -0.953125 1.078125q-0.671875 0.375 -1.71875 0.375zm9.474503 0q-1.28125 0 -1.984375 -0.671875q-0.703125 -0.671875 -0.703125 -1.96875l0 -7.03125l1.828125 0l0 6.984375q0 0.5625 0.28125 0.875q0.296875 0.296875 0.8125 0.296875q0.609375 0 1.015625 -0.328125l0.515625 1.3125q-0.328125 0.265625 -0.796875 0.40625q-0.46875 0.125 -0.96875 0.125zm-3.984375 -6.40625l0 -1.46875l5.21875 0l0 1.46875l-5.21875 0zm17.136154 -1.625q0.9375 0 1.65625 0.375q0.734375 0.359375 1.140625 1.125q0.421875 0.75 0.421875 1.9375l0 4.484375l-1.84375 0l0 -4.25q0 -1.046875 -0.453125 -1.546875q-0.453125 -0.515625 -1.296875 -0.515625q-0.609375 0 -1.078125 0.265625q-0.453125 0.25 -0.71875 0.765625q-0.25 0.515625 -0.25 1.3125l0 3.96875l-1.828125 0l0 -4.25q0 -1.046875 -0.453125 -1.546875q-0.453125 -0.515625 -1.296875 -0.515625q-0.609375 0 -1.078125 0.265625q-0.453125 0.25 -0.71875 0.765625q-0.25 0.515625 -0.25 1.3125l0 3.96875l-1.828125 0l0 -7.828125l1.75 0l0 2.078125l-0.3125 -0.609375q0.390625 -0.765625 1.140625 -1.15625q0.765625 -0.40625 1.734375 -0.40625q1.09375 0 1.90625 0.546875q0.8125 0.546875 1.078125 1.640625l-0.71875 -0.25q0.375 -0.875 1.25 -1.40625q0.890625 -0.53125 2.046875 -0.53125zm9.244629 8.03125q-1.296875 0 -2.28125 -0.515625q-0.96875 -0.53125 -1.5 -1.4375q-0.53125 -0.90625 -0.53125 -2.0625q0 -1.171875 0.515625 -2.078125q0.515625 -0.90625 1.421875 -1.421875q0.921875 -0.515625 2.109375 -0.515625q1.140625 0 2.03125 0.5q0.890625 0.5 1.40625 1.421875q0.515625 0.90625 0.515625 2.125q0 0.125 -0.015625 0.28125q0 0.140625 -0.015625 0.265625l-6.515625 0l0 -1.21875l5.546875 0l-0.71875 0.390625q0.015625 -0.6875 -0.28125 -1.1875q-0.296875 -0.515625 -0.796875 -0.8125q-0.5 -0.296875 -1.15625 -0.296875q-0.6875 0 -1.1875 0.296875q-0.5 0.296875 -0.796875 0.8125q-0.28125 0.515625 -0.28125 1.21875l0 0.296875q0 0.703125 0.3125 1.25q0.328125 0.546875 0.90625 0.84375q0.59375 0.28125 1.359375 0.28125q0.65625 0 1.1875 -0.203125q0.53125 -0.203125 0.9375 -0.640625l0.984375 1.125q-0.53125 0.609375 -1.328125 0.953125q-0.796875 0.328125 -1.828125 0.328125zm9.881851 -8.03125q0.9375 0 1.671875 0.375q0.75 0.359375 1.171875 1.125q0.421875 0.75 0.421875 1.9375l0 4.484375l-1.828125 0l0 -4.25q0 -1.046875 -0.5 -1.546875q-0.484375 -0.515625 -1.359375 -0.515625q-0.640625 0 -1.140625 0.265625q-0.5 0.25 -0.78125 0.78125q-0.265625 0.515625 -0.265625 1.3125l0 3.953125l-1.828125 0l0 -7.828125l1.75 0l0 2.109375l-0.3125 -0.640625q0.40625 -0.75 1.1875 -1.15625q0.78125 -0.40625 1.8125 -0.40625zm8.539566 8.03125q-1.28125 0 -1.984375 -0.671875q-0.703125 -0.671875 -0.703125 -1.96875l0 -7.03125l1.828125 0l0 6.984375q0 0.5625 0.28125 0.875q0.296875 0.296875 0.8125 0.296875q0.609375 0 1.015625 -0.328125l0.515625 1.3125q-0.328125 0.265625 -0.796875 0.40625q-0.46875 0.125 -0.96875 0.125zm-3.984375 -6.40625l0 -1.46875l5.21875 0l0 1.46875l-5.21875 0z" fill-rule="nonzero"/></g><g filter="url(#shadowFilter-p.2)"><use xlink:href="#p.2" transform="matrix(1.0 0.0 0.0 1.0 0.0 2.0)"/></g><defs><filter id="shadowFilter-p.2" filterUnits="userSpaceOnUse"><feGaussianBlur in="SourceAlpha" stdDeviation="2.0" result="blur"/><feComponentTransfer in="blur" color-interpolation-filters="sRGB"><feFuncR type="linear" slope="0" intercept="0.0"/><feFuncG type="linear" slope="0" intercept="0.0"/><feFuncB type="linear" slope="0" intercept="0.0"/><feFuncA type="linear" slope="0.5" intercept="0"/></feComponentTransfer></filter></defs><g id="p.2"><path fill="#efefef" d="m566.3138 250.4498l0 0c0 -25.89215 31.868835 -46.881897 71.18109 -46.881897l0 0c39.312256 0 71.18109 20.989746 71.18109 46.881897l0 0c0 25.89215 -31.868835 46.881897 -71.18109 46.881897l0 0c-39.312256 0 -71.18109 -20.989746 -71.18109 -46.881897z" fill-rule="evenodd"/><path stroke="#000000" stroke-width="2.0" stroke-linejoin="round" stroke-linecap="butt" d="m566.3138 250.4498l0 0c0 -25.89215 31.868835 -46.881897 71.18109 -46.881897l0 0c39.312256 0 71.18109 20.989746 71.18109 46.881897l0 0c0 25.89215 -31.868835 46.881897 -71.18109 46.881897l0 0c-39.312256 0 -71.18109 -20.989746 -71.18109 -46.881897z" fill-rule="evenodd"/><path fill="#000000" d="m608.3388 255.67043q-1.203125 0 -2.21875 -0.390625q-1.015625 -0.390625 -1.765625 -1.09375q-0.734375 -0.71875 -1.15625 -1.671875q-0.40625 -0.96875 -0.40625 -2.109375q0 -1.140625 0.40625 -2.09375q0.421875 -0.96875 1.15625 -1.671875q0.75 -0.71875 1.765625 -1.109375q1.015625 -0.40625 2.203125 -0.40625q1.203125 0 2.203125 0.40625q1.0 0.390625 1.75 1.109375q0.75 0.703125 1.15625 1.671875q0.421875 0.953125 0.421875 2.09375q0 1.140625 -0.421875 2.109375q-0.40625 0.96875 -1.15625 1.671875q-0.75 0.703125 -1.75 1.09375q-1.0 0.390625 -2.1875 0.390625zm-0.015625 -1.671875q0.78125 0 1.4375 -0.25q0.65625 -0.265625 1.140625 -0.75q0.484375 -0.5 0.75 -1.15625q0.28125 -0.65625 0.28125 -1.4375q0 -0.796875 -0.28125 -1.4375q-0.265625 -0.65625 -0.75 -1.140625q-0.484375 -0.5 -1.140625 -0.765625q-0.65625 -0.265625 -1.4375 -0.265625q-0.78125 0 -1.4375 0.265625q-0.640625 0.265625 -1.140625 0.765625q-0.484375 0.484375 -0.765625 1.140625q-0.265625 0.640625 -0.265625 1.4375q0 0.765625 0.265625 1.4375q0.28125 0.65625 0.765625 1.15625q0.484375 0.484375 1.140625 0.75q0.65625 0.25 1.4375 0.25zm10.684387 1.640625q-1.0 0 -1.765625 -0.375q-0.75 -0.375 -1.1875 -1.140625q-0.421875 -0.78125 -0.421875 -1.953125l0 -4.46875l1.828125 0l0 4.21875q0 1.0625 0.46875 1.578125q0.484375 0.515625 1.375 0.515625q0.640625 0 1.109375 -0.25q0.484375 -0.265625 0.75 -0.796875q0.28125 -0.53125 0.28125 -1.3125l0 -3.953125l1.828125 0l0 7.828125l-1.75 0l0 -2.109375l0.3125 0.640625q-0.390625 0.765625 -1.15625 1.171875q-0.765625 0.40625 -1.671875 0.40625zm9.605957 0q-1.28125 0 -1.984375 -0.671875q-0.703125 -0.671875 -0.703125 -1.96875l0 -7.03125l1.828125 0l0 6.984375q0 0.5625 0.28125 0.875q0.296875 0.296875 0.8125 0.296875q0.609375 0 1.015625 -0.328125l0.515625 1.3125q-0.328125 0.265625 -0.796875 0.40625q-0.46875 0.125 -0.96875 0.125zm-3.984375 -6.40625l0 -1.46875l5.21875 0l0 1.46875l-5.21875 0zm10.590881 6.40625q-1.234375 0 -2.203125 -0.515625q-0.953125 -0.53125 -1.5 -1.4375q-0.53125 -0.90625 -0.53125 -2.0625q0 -1.171875 0.53125 -2.078125q0.546875 -0.90625 1.5 -1.421875q0.96875 -0.515625 2.203125 -0.515625q1.140625 0 2.015625 0.46875q0.875 0.46875 1.328125 1.359375l-1.40625 0.8125q-0.359375 -0.546875 -0.875 -0.8125q-0.5 -0.265625 -1.078125 -0.265625q-0.671875 0 -1.21875 0.296875q-0.546875 0.28125 -0.859375 0.84375q-0.296875 0.546875 -0.296875 1.3125q0 0.75 0.296875 1.3125q0.3125 0.546875 0.859375 0.84375q0.546875 0.28125 1.21875 0.28125q0.578125 0 1.078125 -0.265625q0.515625 -0.265625 0.875 -0.8125l1.40625 0.8125q-0.453125 0.890625 -1.328125 1.375q-0.875 0.46875 -2.015625 0.46875zm8.319885 0q-1.203125 0 -2.140625 -0.515625q-0.9375 -0.53125 -1.484375 -1.4375q-0.53125 -0.90625 -0.53125 -2.0625q0 -1.171875 0.53125 -2.078125q0.546875 -0.90625 1.484375 -1.421875q0.9375 -0.515625 2.140625 -0.515625q1.21875 0 2.15625 0.515625q0.953125 0.515625 1.484375 1.421875q0.53125 0.890625 0.53125 2.078125q0 1.15625 -0.53125 2.0625q-0.53125 0.90625 -1.484375 1.4375q-0.9375 0.515625 -2.15625 0.515625zm0 -1.578125q0.671875 0 1.203125 -0.28125q0.53125 -0.296875 0.828125 -0.859375q0.296875 -0.5625 0.296875 -1.296875q0 -0.765625 -0.296875 -1.3125q-0.296875 -0.5625 -0.828125 -0.84375q-0.53125 -0.296875 -1.1875 -0.296875q-0.671875 0 -1.203125 0.296875q-0.515625 0.28125 -0.828125 0.84375q-0.296875 0.546875 -0.296875 1.3125q0 0.734375 0.296875 1.296875q0.3125 0.5625 0.828125 0.859375q0.53125 0.28125 1.1875 0.28125zm15.812683 -6.453125q0.9375 0 1.65625 0.375q0.734375 0.359375 1.140625 1.125q0.421875 0.75 0.421875 1.9375l0 4.484375l-1.84375 0l0 -4.25q0 -1.046875 -0.453125 -1.546875q-0.453125 -0.515625 -1.296875 -0.515625q-0.609375 0 -1.078125 0.265625q-0.453125 0.25 -0.71875 0.765625q-0.25 0.515625 -0.25 1.3125l0 3.96875l-1.828125 0l0 -4.25q0 -1.046875 -0.453125 -1.546875q-0.453125 -0.515625 -1.296875 -0.515625q-0.609375 0 -1.078125 0.265625q-0.453125 0.25 -0.71875 0.765625q-0.25 0.515625 -0.25 1.3125l0 3.96875l-1.828125 0l0 -7.828125l1.75 0l0 2.078125l-0.3125 -0.609375q0.390625 -0.765625 1.140625 -1.15625q0.765625 -0.40625 1.734375 -0.40625q1.09375 0 1.90625 0.546875q0.8125 0.546875 1.078125 1.640625l-0.71875 -0.25q0.375 -0.875 1.25 -1.40625q0.890625 -0.53125 2.046875 -0.53125zm9.244629 8.03125q-1.296875 0 -2.28125 -0.515625q-0.96875 -0.53125 -1.5 -1.4375q-0.53125 -0.90625 -0.53125 -2.0625q0 -1.171875 0.515625 -2.078125q0.515625 -0.90625 1.421875 -1.421875q0.921875 -0.515625 2.109375 -0.515625q1.140625 0 2.03125 0.5q0.890625 0.5 1.40625 1.421875q0.515625 0.90625 0.515625 2.125q0 0.125 -0.015625 0.28125q0 0.140625 -0.015625 0.265625l-6.515625 0l0 -1.21875l5.546875 0l-0.71875 0.390625q0.015625 -0.6875 -0.28125 -1.1875q-0.296875 -0.515625 -0.796875 -0.8125q-0.5 -0.296875 -1.15625 -0.296875q-0.6875 0 -1.1875 0.296875q-0.5 0.296875 -0.796875 0.8125q-0.28125 0.515625 -0.28125 1.21875l0 0.296875q0 0.703125 0.3125 1.25q0.328125 0.546875 0.90625 0.84375q0.59375 0.28125 1.359375 0.28125q0.65625 0 1.1875 -0.203125q0.53125 -0.203125 0.9375 -0.640625l0.984375 1.125q-0.53125 0.609375 -1.328125 0.953125q-0.796875 0.328125 -1.828125 0.328125z" fill-rule="nonzero"/></g><g filter="url(#shadowFilter-p.3)"><use xlink:href="#p.3" transform="matrix(1.0 0.0 0.0 1.0 0.0 2.0)"/></g><defs><filter id="shadowFilter-p.3" filterUnits="userSpaceOnUse"><feGaussianBlur in="SourceAlpha" stdDeviation="2.0" result="blur"/><feComponentTransfer in="blur" color-interpolation-filters="sRGB"><feFuncR type="linear" slope="0" intercept="0.0"/><feFuncG type="linear" slope="0" intercept="0.0"/><feFuncB type="linear" slope="0" intercept="0.0"/><feFuncA type="linear" slope="0.5" intercept="0"/></feComponentTransfer></filter></defs><g id="p.3"><path fill="#000000" fill-opacity="0.0" d="m152.13416 250.4498l414.17322 0" fill-rule="evenodd"/><path stroke="#000000" stroke-width="2.0" stroke-linejoin="round" stroke-linecap="butt" d="m152.13416 250.4498l407.31903 0" fill-rule="evenodd"/><path fill="#000000" stroke="#000000" stroke-width="2.0" stroke-linecap="butt" d="m559.4532 250.4498l-2.2491455 2.249176l6.1795044 -2.249176l-6.1795044 -2.2491608z" fill-rule="evenodd"/></g><g filter="url(#shadowFilter-p.4)"><use xlink:href="#p.4" transform="matrix(1.0 0.0 0.0 1.0 0.0 2.0)"/></g><defs><filter id="shadowFilter-p.4" filterUnits="userSpaceOnUse"><feGaussianBlur in="SourceAlpha" stdDeviation="2.0" result="blur"/><feComponentTransfer in="blur" color-interpolation-filters="sRGB"><feFuncR type="linear" slope="0" intercept="0.0"/><feFuncG type="linear" slope="0" intercept="0.0"/><feFuncB type="linear" slope="0" intercept="0.0"/><feFuncA type="linear" slope="0.5" intercept="0"/></feComponentTransfer></filter></defs><g id="p.4"><path fill="#efefef" d="m287.9544 83.54841l0 0c0 -25.89215 31.868866 -46.881886 71.18109 -46.881886l0 0c39.312225 0 71.18109 20.989735 71.18109 46.881886l0 0c0 25.892159 -31.868866 46.88189 -71.18109 46.88189l0 0c-39.312225 0 -71.18109 -20.98973 -71.18109 -46.88189z" fill-rule="evenodd"/><path stroke="#000000" stroke-width="2.0" stroke-linejoin="round" stroke-linecap="butt" d="m287.9544 83.54841l0 0c0 -25.89215 31.868866 -46.881886 71.18109 -46.881886l0 0c39.312225 0 71.18109 20.989735 71.18109 46.881886l0 0c0 25.892159 -31.868866 46.88189 -71.18109 46.88189l0 0c-39.312225 0 -71.18109 -20.98973 -71.18109 -46.88189z" fill-rule="evenodd"/><path fill="#000000" d="m324.3345 88.769035q-2.125 0 -3.3125 -1.1875q-1.1875 -1.1875 -1.1875 -3.421875l0 -5.796875l1.890625 0l0 5.71875q0 1.59375 0.6875 2.3125q0.6875 0.703125 1.921875 0.703125q1.25 0 1.921875 -0.703125q0.671875 -0.71875 0.671875 -2.3125l0 -5.71875l1.890625 0l0 5.796875q0 2.234375 -1.203125 3.421875q-1.1875 1.1875 -3.28125 1.1875zm11.407593 -8.0625q0.9375 0 1.671875 0.375q0.75 0.359375 1.171875 1.125q0.421875 0.75 0.421875 1.9375l0 4.484375l-1.828125 0l0 -4.25q0 -1.046875 -0.5 -1.546875q-0.484375 -0.515625 -1.359375 -0.515625q-0.640625 0 -1.140625 0.265625q-0.5 0.25 -0.78125 0.78125q-0.265625 0.515625 -0.265625 1.3125l0 3.953125l-1.828125 0l0 -7.828125l1.75 0l0 2.109375l-0.3125 -0.640625q0.40625 -0.75 1.1875 -1.15625q0.78125 -0.40625 1.8125 -0.40625zm7.102051 6.171875l0.03125 -2.296875l4.09375 -3.78125l2.203125 0l-3.46875 3.484375l-0.96875 0.8125l-1.890625 1.78125zm-1.5 1.75l0 -10.875l1.828125 0l0 10.875l-1.828125 0zm5.90625 0l-2.859375 -3.53125l1.15625 -1.46875l3.9375 5.0l-2.234375 0zm7.7793274 -7.921875q0.9375 0 1.671875 0.375q0.75 0.359375 1.171875 1.125q0.421875 0.75 0.421875 1.9375l0 4.484375l-1.828125 0l0 -4.25q0 -1.046875 -0.5 -1.546875q-0.484375 -0.515625 -1.359375 -0.515625q-0.640625 0 -1.140625 0.265625q-0.5 0.25 -0.78125 0.78125q-0.265625 0.515625 -0.265625 1.3125l0 3.953125l-1.828125 0l0 -7.828125l1.75 0l0 2.109375l-0.3125 -0.640625q0.40625 -0.75 1.1875 -1.15625q0.78125 -0.40625 1.8125 -0.40625zm9.132355 8.03125q-1.203125 0 -2.140625 -0.515625q-0.9375 -0.53125 -1.484375 -1.4375q-0.53125 -0.90625 -0.53125 -2.0625q0 -1.171875 0.53125 -2.078125q0.546875 -0.90625 1.484375 -1.421875q0.9375 -0.515625 2.140625 -0.515625q1.21875 0 2.15625 0.515625q0.953125 0.515625 1.484375 1.421875q0.53125 0.890625 0.53125 2.078125q0 1.15625 -0.53125 2.0625q-0.53125 0.90625 -1.484375 1.4375q-0.9375 0.515625 -2.15625 0.515625zm0 -1.578125q0.671875 0 1.203125 -0.28125q0.53125 -0.296875 0.828125 -0.859375q0.296875 -0.5625 0.296875 -1.296875q0 -0.765625 -0.296875 -1.3125q-0.296875 -0.5625 -0.828125 -0.84375q-0.53125 -0.296875 -1.1875 -0.296875q-0.671875 0 -1.203125 0.296875q-0.515625 0.28125 -0.828125 0.84375q-0.296875 0.546875 -0.296875 1.3125q0 0.734375 0.296875 1.296875q0.3125 0.5625 0.828125 0.859375q0.53125 0.28125 1.1875 0.28125zm7.4520874 1.46875l-2.875 -7.828125l1.71875 0l2.46875 6.90625l-0.828125 0l2.59375 -6.90625l1.53125 0l2.5 6.90625l-0.796875 0l2.53125 -6.90625l1.625 0l-2.890625 7.828125l-1.75 0l-2.28125 -6.109375l0.53125 0l-2.328125 6.109375l-1.75 0zm16.172272 -7.921875q0.9375 0 1.671875 0.375q0.75 0.359375 1.171875 1.125q0.421875 0.75 0.421875 1.9375l0 4.484375l-1.828125 0l0 -4.25q0 -1.046875 -0.5 -1.546875q-0.484375 -0.515625 -1.359375 -0.515625q-0.640625 0 -1.140625 0.265625q-0.5 0.25 -0.78125 0.78125q-0.265625 0.515625 -0.265625 1.3125l0 3.953125l-1.828125 0l0 -7.828125l1.75 0l0 2.109375l-0.3125 -0.640625q0.40625 -0.75 1.1875 -1.15625q0.78125 -0.40625 1.8125 -0.40625zm8.023926 8.03125q-0.984375 0 -1.890625 -0.25q-0.90625 -0.265625 -1.421875 -0.640625l0.703125 -1.390625q0.515625 0.34375 1.25 0.5625q0.734375 0.21875 1.46875 0.21875q0.875 0 1.25 -0.234375q0.390625 -0.234375 0.390625 -0.625q0 -0.328125 -0.265625 -0.5q-0.265625 -0.171875 -0.6875 -0.25q-0.421875 -0.09375 -0.953125 -0.15625q-0.515625 -0.078125 -1.03125 -0.203125q-0.515625 -0.125 -0.953125 -0.359375q-0.421875 -0.25 -0.6875 -0.65625q-0.25 -0.421875 -0.25 -1.09375q0 -0.75 0.421875 -1.296875q0.421875 -0.546875 1.1875 -0.84375q0.78125 -0.3125 1.828125 -0.3125q0.796875 0 1.59375 0.1875q0.8125 0.171875 1.34375 0.5l-0.703125 1.390625q-0.5625 -0.34375 -1.125 -0.46875q-0.5625 -0.125 -1.125 -0.125q-0.828125 0 -1.234375 0.25q-0.40625 0.25 -0.40625 0.625q0 0.359375 0.265625 0.546875q0.265625 0.171875 0.6875 0.28125q0.421875 0.09375 0.9375 0.15625q0.53125 0.0625 1.046875 0.203125q0.515625 0.125 0.9375 0.359375q0.4375 0.21875 0.703125 0.640625q0.265625 0.40625 0.265625 1.0625q0 0.734375 -0.4375 1.28125q-0.4375 0.53125 -1.234375 0.84375q-0.78125 0.296875 -1.875 0.296875z" fill-rule="nonzero"/></g><g filter="url(#shadowFilter-p.5)"><use xlink:href="#p.5" transform="matrix(1.0 0.0 0.0 1.0 0.0 2.0)"/></g><defs><filter id="shadowFilter-p.5" filterUnits="userSpaceOnUse"><feGaussianBlur in="SourceAlpha" stdDeviation="2.0" result="blur"/><feComponentTransfer in="blur" color-interpolation-filters="sRGB"><feFuncR type="linear" slope="0" intercept="0.0"/><feFuncG type="linear" slope="0" intercept="0.0"/><feFuncB type="linear" slope="0" intercept="0.0"/><feFuncA type="linear" slope="0.5" intercept="0"/></feComponentTransfer></filter></defs><g id="p.5"><path fill="#000000" fill-opacity="0.0" d="m359.1355 130.4303l-227.84251 86.86615" fill-rule="evenodd"/><path stroke="#000000" stroke-width="2.0" stroke-linejoin="round" stroke-linecap="butt" d="m359.1355 130.4303l-221.43802 84.42441" fill-rule="evenodd"/><path fill="#000000" stroke="#000000" stroke-width="2.0" stroke-linecap="butt" d="m137.69748 214.85469l1.300354 -2.9028473l-4.97287 4.3030243l6.575363 -0.09980774z" fill-rule="evenodd"/></g><g filter="url(#shadowFilter-p.6)"><use xlink:href="#p.6" transform="matrix(1.0 0.0 0.0 1.0 0.0 2.0)"/></g><defs><filter id="shadowFilter-p.6" filterUnits="userSpaceOnUse"><feGaussianBlur in="SourceAlpha" stdDeviation="2.0" result="blur"/><feComponentTransfer in="blur" color-interpolation-filters="sRGB"><feFuncR type="linear" slope="0" intercept="0.0"/><feFuncG type="linear" slope="0" intercept="0.0"/><feFuncB type="linear" slope="0" intercept="0.0"/><feFuncA type="linear" slope="0.5" intercept="0"/></feComponentTransfer></filter></defs><g id="p.6"><path fill="#000000" fill-opacity="0.0" d="m359.1355 130.4303l228.0315 86.86615" fill-rule="evenodd"/><path stroke="#000000" stroke-width="2.0" stroke-linejoin="round" stroke-linecap="butt" d="m359.1355 130.4303l221.62634 84.42616" fill-rule="evenodd"/><path fill="#000000" stroke="#000000" stroke-width="2.0" stroke-linecap="butt" d="m580.76184 214.85646l-2.9025269 1.3011627l6.5754395 0.09799194l-4.97406 -4.301651z" fill-rule="evenodd"/></g><g filter="url(#shadowFilter-p.7)"><use xlink:href="#p.7" transform="matrix(1.0 0.0 0.0 1.0 0.0 2.0)"/></g><defs><filter id="shadowFilter-p.7" filterUnits="userSpaceOnUse"><feGaussianBlur in="SourceAlpha" stdDeviation="2.0" result="blur"/><feComponentTransfer in="blur" color-interpolation-filters="sRGB"><feFuncR type="linear" slope="0" intercept="0.0"/><feFuncG type="linear" slope="0" intercept="0.0"/><feFuncB type="linear" slope="0" intercept="0.0"/><feFuncA type="linear" slope="0.5" intercept="0"/></feComponentTransfer></filter></defs><g id="p.7"><path fill="#efefef" d="m9.771948 587.32935l0 0c0 -25.892212 31.868864 -46.881897 71.1811 -46.881897l0 0c39.31224 0 71.18111 20.989685 71.18111 46.881897l0 0c0 25.89215 -31.868866 46.881836 -71.18111 46.881836l0 0c-39.312237 0 -71.1811 -20.989685 -71.1811 -46.881836z" fill-rule="evenodd"/><path stroke="#000000" stroke-width="2.0" stroke-linejoin="round" stroke-linecap="butt" d="m9.771948 587.32935l0 0c0 -25.892212 31.868864 -46.881897 71.1811 -46.881897l0 0c39.31224 0 71.18111 20.989685 71.18111 46.881897l0 0c0 25.89215 -31.868866 46.881836 -71.18111 46.881836l0 0c-39.312237 0 -71.1811 -20.989685 -71.1811 -46.881836z" fill-rule="evenodd"/><path fill="#000000" d="m44.673122 592.4093l0 -8.640625l-3.390625 0l0 -1.625l8.703125 0l0 1.625l-3.40625 0l0 8.640625l-1.90625 0zm6.382416 0l0 -7.828125l1.75 0l0 2.15625l-0.21875 -0.625q0.359375 -0.796875 1.109375 -1.203125q0.765625 -0.421875 1.890625 -0.421875l0 1.75q-0.125 -0.03125 -0.234375 -0.03125q-0.09375 -0.015625 -0.1875 -0.015625q-1.046875 0 -1.671875 0.609375q-0.609375 0.609375 -0.609375 1.8125l0 3.796875l-1.828125 0zm9.680862 0.109375q-1.296875 0 -2.28125 -0.515625q-0.96875 -0.53125 -1.5 -1.4375q-0.53125 -0.90625 -0.53125 -2.0625q0 -1.171875 0.515625 -2.078125q0.515625 -0.90625 1.421875 -1.421875q0.921875 -0.515625 2.109375 -0.515625q1.140625 0 2.03125 0.5q0.890625 0.5 1.40625 1.421875q0.5156212 0.90625 0.5156212 2.125q0 0.125 -0.015625 0.28125q0 0.140625 -0.015625 0.265625l-6.515621 0l0 -1.21875l5.546875 0l-0.71875 0.390625q0.015625 -0.6875 -0.28125 -1.1875q-0.296875 -0.515625 -0.796875 -0.8125q-0.5 -0.296875 -1.15625 -0.296875q-0.6875 0 -1.1875 0.296875q-0.5 0.296875 -0.796875 0.8125q-0.28125 0.515625 -0.28125 1.21875l0 0.296875q0 0.703125 0.3125 1.25q0.328125 0.546875 0.90625 0.84375q0.59375 0.28125 1.359375 0.28125q0.65625 0 1.1875 -0.203125q0.53125 -0.203125 0.9375 -0.640625l0.984375 1.125q-0.53125 0.609375 -1.328125 0.953125q-0.796875 0.328125 -1.828125 0.328125zm10.052471 -0.109375l0 -1.578125l-0.109375 -0.34375l0 -2.765625q0 -0.8125 -0.484375 -1.25q-0.484375 -0.453125 -1.46875 -0.453125q-0.65625 0 -1.296875 0.203125q-0.640625 0.203125 -1.078125 0.578125l-0.71875 -1.34375q0.640625 -0.484375 1.5 -0.71875q0.875 -0.25 1.8125 -0.25q1.703125 0 2.625 0.828125q0.9375 0.8125 0.9375 2.5l0 4.59375l-1.71875 0zm-2.46875 0.109375q-0.875 0 -1.546875 -0.296875q-0.65625 -0.3125 -1.015625 -0.84375q-0.359375 -0.53125 -0.359375 -1.21875q0 -0.65625 0.3125 -1.171875q0.328125 -0.53125 1.046875 -0.84375q0.71875 -0.3125 1.90625 -0.3125l2.265625 0l0 1.21875l-2.140625 0q-0.9375 0 -1.265625 0.3125q-0.3125 0.296875 -0.3125 0.734375q0 0.5 0.390625 0.796875q0.390625 0.28125 1.09375 0.28125q0.671875 0 1.203125 -0.296875q0.546875 -0.3125 0.78125 -0.921875l0.3125 1.109375q-0.265625 0.6875 -0.953125 1.078125q-0.671875 0.375 -1.71875 0.375zm9.474503 0q-1.28125 0 -1.984375 -0.671875q-0.703125 -0.671875 -0.703125 -1.96875l0 -7.03125l1.828125 0l0 6.984375q0 0.5625 0.28125 0.875q0.296875 0.296875 0.8125 0.296875q0.609375 0 1.015625 -0.328125l0.515625 1.3125q-0.328125 0.265625 -0.796875 0.40625q-0.46875 0.125 -0.96875 0.125zm-3.984375 -6.40625l0 -1.46875l5.21875 0l0 1.46875l-5.21875 0zm17.136154 -1.625q0.9375 0 1.65625 0.375q0.734375 0.359375 1.140625 1.125q0.421875 0.75 0.421875 1.9375l0 4.484375l-1.84375 0l0 -4.25q0 -1.046875 -0.453125 -1.546875q-0.453125 -0.515625 -1.296875 -0.515625q-0.609375 0 -1.078125 0.265625q-0.453125 0.25 -0.71875 0.765625q-0.25 0.515625 -0.25 1.3125l0 3.96875l-1.828125 0l0 -4.25q0 -1.046875 -0.453125 -1.546875q-0.453125 -0.515625 -1.296875 -0.515625q-0.609375 0 -1.078125 0.265625q-0.453125 0.25 -0.71875 0.765625q-0.25 0.515625 -0.25 1.3125l0 3.96875l-1.828125 0l0 -7.828125l1.75 0l0 2.078125l-0.3125 -0.609375q0.390625 -0.765625 1.140625 -1.15625q0.765625 -0.40625 1.734375 -0.40625q1.09375 0 1.90625 0.546875q0.8125 0.546875 1.078125 1.640625l-0.71875 -0.25q0.375 -0.875 1.25 -1.40625q0.890625 -0.53125 2.046875 -0.53125zm9.244629 8.03125q-1.296875 0 -2.28125 -0.515625q-0.96875 -0.53125 -1.5 -1.4375q-0.53125 -0.90625 -0.53125 -2.0625q0 -1.171875 0.515625 -2.078125q0.515625 -0.90625 1.421875 -1.421875q0.921875 -0.515625 2.109375 -0.515625q1.140625 0 2.03125 0.5q0.890625 0.5 1.40625 1.421875q0.515625 0.90625 0.515625 2.125q0 0.125 -0.015625 0.28125q0 0.140625 -0.015625 0.265625l-6.515625 0l0 -1.21875l5.546875 0l-0.71875 0.390625q0.015625 -0.6875 -0.28125 -1.1875q-0.296875 -0.515625 -0.796875 -0.8125q-0.5 -0.296875 -1.15625 -0.296875q-0.6875 0 -1.1875 0.296875q-0.5 0.296875 -0.796875 0.8125q-0.28125 0.515625 -0.28125 1.21875l0 0.296875q0 0.703125 0.3125 1.25q0.328125 0.546875 0.90625 0.84375q0.59375 0.28125 1.359375 0.28125q0.65625 0 1.1875 -0.203125q0.53125 -0.203125 0.9375 -0.640625l0.984375 1.125q-0.53125 0.609375 -1.328125 0.953125q-0.796875 0.328125 -1.828125 0.328125zm9.881851 -8.03125q0.9375 0 1.671875 0.375q0.75 0.359375 1.171875 1.125q0.421875 0.75 0.421875 1.9375l0 4.484375l-1.828125 0l0 -4.25q0 -1.046875 -0.5 -1.546875q-0.484375 -0.515625 -1.359375 -0.515625q-0.640625 0 -1.140625 0.265625q-0.5 0.25 -0.78125 0.78125q-0.265625 0.515625 -0.265625 1.3125l0 3.953125l-1.828125 0l0 -7.828125l1.75 0l0 2.109375l-0.3125 -0.640625q0.40625 -0.75 1.1875 -1.15625q0.78125 -0.40625 1.8125 -0.40625zm8.539566 8.03125q-1.28125 0 -1.984375 -0.671875q-0.703125 -0.671875 -0.703125 -1.96875l0 -7.03125l1.828125 0l0 6.984375q0 0.5625 0.28125 0.875q0.296875 0.296875 0.8125 0.296875q0.609375 0 1.015625 -0.328125l0.515625 1.3125q-0.328125 0.265625 -0.796875 0.40625q-0.46875 0.125 -0.96875 0.125zm-3.984375 -6.40625l0 -1.46875l5.21875 0l0 1.46875l-5.21875 0z" fill-rule="nonzero"/></g><g filter="url(#shadowFilter-p.8)"><use xlink:href="#p.8" transform="matrix(1.0 0.0 0.0 1.0 0.0 2.0)"/></g><defs><filter id="shadowFilter-p.8" filterUnits="userSpaceOnUse"><feGaussianBlur in="SourceAlpha" stdDeviation="2.0" result="blur"/><feComponentTransfer in="blur" color-interpolation-filters="sRGB"><feFuncR type="linear" slope="0" intercept="0.0"/><feFuncG type="linear" slope="0" intercept="0.0"/><feFuncB type="linear" slope="0" intercept="0.0"/><feFuncA type="linear" slope="0.5" intercept="0"/></feComponentTransfer></filter></defs><g id="p.8"><path fill="#efefef" d="m566.3138 587.32935l0 0c0 -25.892212 31.868835 -46.881897 71.18109 -46.881897l0 0c39.312256 0 71.18109 20.989685 71.18109 46.881897l0 0c0 25.89215 -31.868835 46.881836 -71.18109 46.881836l0 0c-39.312256 0 -71.18109 -20.989685 -71.18109 -46.881836z" fill-rule="evenodd"/><path stroke="#000000" stroke-width="2.0" stroke-linejoin="round" stroke-linecap="butt" d="m566.3138 587.32935l0 0c0 -25.892212 31.868835 -46.881897 71.18109 -46.881897l0 0c39.312256 0 71.18109 20.989685 71.18109 46.881897l0 0c0 25.89215 -31.868835 46.881836 -71.18109 46.881836l0 0c-39.312256 0 -71.18109 -20.989685 -71.18109 -46.881836z" fill-rule="evenodd"/><path fill="#000000" d="m608.3388 592.5499q-1.203125 0 -2.21875 -0.390625q-1.015625 -0.390625 -1.765625 -1.09375q-0.734375 -0.71875 -1.15625 -1.671875q-0.40625 -0.96875 -0.40625 -2.109375q0 -1.140625 0.40625 -2.09375q0.421875 -0.96875 1.15625 -1.671875q0.75 -0.71875 1.765625 -1.109375q1.015625 -0.40625 2.203125 -0.40625q1.203125 0 2.203125 0.40625q1.0 0.390625 1.75 1.109375q0.75 0.703125 1.15625 1.671875q0.421875 0.953125 0.421875 2.09375q0 1.140625 -0.421875 2.109375q-0.40625 0.96875 -1.15625 1.671875q-0.75 0.703125 -1.75 1.09375q-1.0 0.390625 -2.1875 0.390625zm-0.015625 -1.671875q0.78125 0 1.4375 -0.25q0.65625 -0.265625 1.140625 -0.75q0.484375 -0.5 0.75 -1.15625q0.28125 -0.65625 0.28125 -1.4375q0 -0.796875 -0.28125 -1.4375q-0.265625 -0.65625 -0.75 -1.140625q-0.484375 -0.5 -1.140625 -0.765625q-0.65625 -0.265625 -1.4375 -0.265625q-0.78125 0 -1.4375 0.265625q-0.640625 0.265625 -1.140625 0.765625q-0.484375 0.484375 -0.765625 1.140625q-0.265625 0.640625 -0.265625 1.4375q0 0.765625 0.265625 1.4375q0.28125 0.65625 0.765625 1.15625q0.484375 0.484375 1.140625 0.75q0.65625 0.25 1.4375 0.25zm10.684387 1.640625q-1.0 0 -1.765625 -0.375q-0.75 -0.375 -1.1875 -1.140625q-0.421875 -0.78125 -0.421875 -1.953125l0 -4.46875l1.828125 0l0 4.21875q0 1.0625 0.46875 1.578125q0.484375 0.515625 1.375 0.515625q0.640625 0 1.109375 -0.25q0.484375 -0.265625 0.75 -0.796875q0.28125 -0.53125 0.28125 -1.3125l0 -3.953125l1.828125 0l0 7.828125l-1.75 0l0 -2.109375l0.3125 0.640625q-0.390625 0.765625 -1.15625 1.171875q-0.765625 0.40625 -1.671875 0.40625zm9.605957 0q-1.28125 0 -1.984375 -0.671875q-0.703125 -0.671875 -0.703125 -1.96875l0 -7.03125l1.828125 0l0 6.984375q0 0.5625 0.28125 0.875q0.296875 0.296875 0.8125 0.296875q0.609375 0 1.015625 -0.328125l0.515625 1.3125q-0.328125 0.265625 -0.796875 0.40625q-0.46875 0.125 -0.96875 0.125zm-3.984375 -6.40625l0 -1.46875l5.21875 0l0 1.46875l-5.21875 0zm10.590881 6.40625q-1.234375 0 -2.203125 -0.515625q-0.953125 -0.53125 -1.5 -1.4375q-0.53125 -0.90625 -0.53125 -2.0625q0 -1.171875 0.53125 -2.078125q0.546875 -0.90625 1.5 -1.421875q0.96875 -0.515625 2.203125 -0.515625q1.140625 0 2.015625 0.46875q0.875 0.46875 1.328125 1.359375l-1.40625 0.8125q-0.359375 -0.546875 -0.875 -0.8125q-0.5 -0.265625 -1.078125 -0.265625q-0.671875 0 -1.21875 0.296875q-0.546875 0.28125 -0.859375 0.84375q-0.296875 0.546875 -0.296875 1.3125q0 0.75 0.296875 1.3125q0.3125 0.546875 0.859375 0.84375q0.546875 0.28125 1.21875 0.28125q0.578125 0 1.078125 -0.265625q0.515625 -0.265625 0.875 -0.8125l1.40625 0.8125q-0.453125 0.890625 -1.328125 1.375q-0.875 0.46875 -2.015625 0.46875zm8.319885 0q-1.203125 0 -2.140625 -0.515625q-0.9375 -0.53125 -1.484375 -1.4375q-0.53125 -0.90625 -0.53125 -2.0625q0 -1.171875 0.53125 -2.078125q0.546875 -0.90625 1.484375 -1.421875q0.9375 -0.515625 2.140625 -0.515625q1.21875 0 2.15625 0.515625q0.953125 0.515625 1.484375 1.421875q0.53125 0.890625 0.53125 2.078125q0 1.15625 -0.53125 2.0625q-0.53125 0.90625 -1.484375 1.4375q-0.9375 0.515625 -2.15625 0.515625zm0 -1.578125q0.671875 0 1.203125 -0.28125q0.53125 -0.296875 0.828125 -0.859375q0.296875 -0.5625 0.296875 -1.296875q0 -0.765625 -0.296875 -1.3125q-0.296875 -0.5625 -0.828125 -0.84375q-0.53125 -0.296875 -1.1875 -0.296875q-0.671875 0 -1.203125 0.296875q-0.515625 0.28125 -0.828125 0.84375q-0.296875 0.546875 -0.296875 1.3125q0 0.734375 0.296875 1.296875q0.3125 0.5625 0.828125 0.859375q0.53125 0.28125 1.1875 0.28125zm15.812683 -6.453125q0.9375 0 1.65625 0.375q0.734375 0.359375 1.140625 1.125q0.421875 0.75 0.421875 1.9375l0 4.484375l-1.84375 0l0 -4.25q0 -1.046875 -0.453125 -1.546875q-0.453125 -0.515625 -1.296875 -0.515625q-0.609375 0 -1.078125 0.265625q-0.453125 0.25 -0.71875 0.765625q-0.25 0.515625 -0.25 1.3125l0 3.96875l-1.828125 0l0 -4.25q0 -1.046875 -0.453125 -1.546875q-0.453125 -0.515625 -1.296875 -0.515625q-0.609375 0 -1.078125 0.265625q-0.453125 0.25 -0.71875 0.765625q-0.25 0.515625 -0.25 1.3125l0 3.96875l-1.828125 0l0 -7.828125l1.75 0l0 2.078125l-0.3125 -0.609375q0.390625 -0.765625 1.140625 -1.15625q0.765625 -0.40625 1.734375 -0.40625q1.09375 0 1.90625 0.546875q0.8125 0.546875 1.078125 1.640625l-0.71875 -0.25q0.375 -0.875 1.25 -1.40625q0.890625 -0.53125 2.046875 -0.53125zm9.244629 8.03125q-1.296875 0 -2.28125 -0.515625q-0.96875 -0.53125 -1.5 -1.4375q-0.53125 -0.90625 -0.53125 -2.0625q0 -1.171875 0.515625 -2.078125q0.515625 -0.90625 1.421875 -1.421875q0.921875 -0.515625 2.109375 -0.515625q1.140625 0 2.03125 0.5q0.890625 0.5 1.40625 1.421875q0.515625 0.90625 0.515625 2.125q0 0.125 -0.015625 0.28125q0 0.140625 -0.015625 0.265625l-6.515625 0l0 -1.21875l5.546875 0l-0.71875 0.390625q0.015625 -0.6875 -0.28125 -1.1875q-0.296875 -0.515625 -0.796875 -0.8125q-0.5 -0.296875 -1.15625 -0.296875q-0.6875 0 -1.1875 0.296875q-0.5 0.296875 -0.796875 0.8125q-0.28125 0.515625 -0.28125 1.21875l0 0.296875q0 0.703125 0.3125 1.25q0.328125 0.546875 0.90625 0.84375q0.59375 0.28125 1.359375 0.28125q0.65625 0 1.1875 -0.203125q0.53125 -0.203125 0.9375 -0.640625l0.984375 1.125q-0.53125 0.609375 -1.328125 0.953125q-0.796875 0.328125 -1.828125 0.328125z" fill-rule="nonzero"/></g><g filter="url(#shadowFilter-p.9)"><use xlink:href="#p.9" transform="matrix(1.0 0.0 0.0 1.0 0.0 2.0)"/></g><defs><filter id="shadowFilter-p.9" filterUnits="userSpaceOnUse"><feGaussianBlur in="SourceAlpha" stdDeviation="2.0" result="blur"/><feComponentTransfer in="blur" color-interpolation-filters="sRGB"><feFuncR type="linear" slope="0" intercept="0.0"/><feFuncG type="linear" slope="0" intercept="0.0"/><feFuncB type="linear" slope="0" intercept="0.0"/><feFuncA type="linear" slope="0.5" intercept="0"/></feComponentTransfer></filter></defs><g id="p.9"><path fill="#000000" fill-opacity="0.0" d="m152.14055 586.7309l414.17322 0.5984497" fill-rule="evenodd"/><path stroke="#000000" stroke-width="2.0" stroke-linejoin="round" stroke-linecap="butt" d="m152.14055 586.7309l407.31903 0.588562" fill-rule="evenodd"/><path fill="#000000" stroke="#000000" stroke-width="2.0" stroke-linecap="butt" d="m559.4596 587.3194l-2.2523804 2.2459106l6.1827393 -2.2402344l-6.1762695 -2.2580566z" fill-rule="evenodd"/></g><g filter="url(#shadowFilter-p.10)"><use xlink:href="#p.10" transform="matrix(1.0 0.0 0.0 1.0 0.0 2.0)"/></g><defs><filter id="shadowFilter-p.10" filterUnits="userSpaceOnUse"><feGaussianBlur in="SourceAlpha" stdDeviation="2.0" result="blur"/><feComponentTransfer in="blur" color-interpolation-filters="sRGB"><feFuncR type="linear" slope="0" intercept="0.0"/><feFuncG type="linear" slope="0" intercept="0.0"/><feFuncB type="linear" slope="0" intercept="0.0"/><feFuncA type="linear" slope="0.5" intercept="0"/></feComponentTransfer></filter></defs><g id="p.10"><path fill="#efefef" d="m287.9544 420.42795l0 0c0 -25.89215 31.868866 -46.881897 71.18109 -46.881897l0 0c39.312225 0 71.18109 20.989746 71.18109 46.881897l0 0c0 25.89215 -31.868866 46.881866 -71.18109 46.881866l0 0c-39.312225 0 -71.18109 -20.989716 -71.18109 -46.881866z" fill-rule="evenodd"/><path stroke="#000000" stroke-width="2.0" stroke-linejoin="round" stroke-linecap="butt" d="m287.9544 420.42795l0 0c0 -25.89215 31.868866 -46.881897 71.18109 -46.881897l0 0c39.312225 0 71.18109 20.989746 71.18109 46.881897l0 0c0 25.89215 -31.868866 46.881866 -71.18109 46.881866l0 0c-39.312225 0 -71.18109 -20.989716 -71.18109 -46.881866z" fill-rule="evenodd"/><path fill="#000000" d="m324.3345 425.64856q-2.125 0 -3.3125 -1.1875q-1.1875 -1.1875 -1.1875 -3.421875l0 -5.796875l1.890625 0l0 5.71875q0 1.59375 0.6875 2.3125q0.6875 0.703125 1.921875 0.703125q1.25 0 1.921875 -0.703125q0.671875 -0.71875 0.671875 -2.3125l0 -5.71875l1.890625 0l0 5.796875q0 2.234375 -1.203125 3.421875q-1.1875 1.1875 -3.28125 1.1875zm11.407593 -8.0625q0.9375 0 1.671875 0.375q0.75 0.359375 1.171875 1.125q0.421875 0.75 0.421875 1.9375l0 4.484375l-1.828125 0l0 -4.25q0 -1.046875 -0.5 -1.546875q-0.484375 -0.515625 -1.359375 -0.515625q-0.640625 0 -1.140625 0.265625q-0.5 0.25 -0.78125 0.78125q-0.265625 0.515625 -0.265625 1.3125l0 3.953125l-1.828125 0l0 -7.828125l1.75 0l0 2.109375l-0.3125 -0.640625q0.40625 -0.75 1.1875 -1.15625q0.78125 -0.40625 1.8125 -0.40625zm7.102051 6.171875l0.03125 -2.296875l4.09375 -3.78125l2.203125 0l-3.46875 3.484375l-0.96875 0.8125l-1.890625 1.78125zm-1.5 1.75l0 -10.875l1.828125 0l0 10.875l-1.828125 0zm5.90625 0l-2.859375 -3.53125l1.15625 -1.46875l3.9375 5.0l-2.234375 0zm7.7793274 -7.921875q0.9375 0 1.671875 0.375q0.75 0.359375 1.171875 1.125q0.421875 0.75 0.421875 1.9375l0 4.484375l-1.828125 0l0 -4.25q0 -1.046875 -0.5 -1.546875q-0.484375 -0.515625 -1.359375 -0.515625q-0.640625 0 -1.140625 0.265625q-0.5 0.25 -0.78125 0.78125q-0.265625 0.515625 -0.265625 1.3125l0 3.953125l-1.828125 0l0 -7.828125l1.75 0l0 2.109375l-0.3125 -0.640625q0.40625 -0.75 1.1875 -1.15625q0.78125 -0.40625 1.8125 -0.40625zm9.132355 8.03125q-1.203125 0 -2.140625 -0.515625q-0.9375 -0.53125 -1.484375 -1.4375q-0.53125 -0.90625 -0.53125 -2.0625q0 -1.171875 0.53125 -2.078125q0.546875 -0.90625 1.484375 -1.421875q0.9375 -0.515625 2.140625 -0.515625q1.21875 0 2.15625 0.515625q0.953125 0.515625 1.484375 1.421875q0.53125 0.890625 0.53125 2.078125q0 1.15625 -0.53125 2.0625q-0.53125 0.90625 -1.484375 1.4375q-0.9375 0.515625 -2.15625 0.515625zm0 -1.578125q0.671875 0 1.203125 -0.28125q0.53125 -0.296875 0.828125 -0.859375q0.296875 -0.5625 0.296875 -1.296875q0 -0.765625 -0.296875 -1.3125q-0.296875 -0.5625 -0.828125 -0.84375q-0.53125 -0.296875 -1.1875 -0.296875q-0.671875 0 -1.203125 0.296875q-0.515625 0.28125 -0.828125 0.84375q-0.296875 0.546875 -0.296875 1.3125q0 0.734375 0.296875 1.296875q0.3125 0.5625 0.828125 0.859375q0.53125 0.28125 1.1875 0.28125zm7.4520874 1.46875l-2.875 -7.828125l1.71875 0l2.46875 6.90625l-0.828125 0l2.59375 -6.90625l1.53125 0l2.5 6.90625l-0.796875 0l2.53125 -6.90625l1.625 0l-2.890625 7.828125l-1.75 0l-2.28125 -6.109375l0.53125 0l-2.328125 6.109375l-1.75 0zm16.172272 -7.921875q0.9375 0 1.671875 0.375q0.75 0.359375 1.171875 1.125q0.421875 0.75 0.421875 1.9375l0 4.484375l-1.828125 0l0 -4.25q0 -1.046875 -0.5 -1.546875q-0.484375 -0.515625 -1.359375 -0.515625q-0.640625 0 -1.140625 0.265625q-0.5 0.25 -0.78125 0.78125q-0.265625 0.515625 -0.265625 1.3125l0 3.953125l-1.828125 0l0 -7.828125l1.75 0l0 2.109375l-0.3125 -0.640625q0.40625 -0.75 1.1875 -1.15625q0.78125 -0.40625 1.8125 -0.40625zm8.023926 8.03125q-0.984375 0 -1.890625 -0.25q-0.90625 -0.265625 -1.421875 -0.640625l0.703125 -1.390625q0.515625 0.34375 1.25 0.5625q0.734375 0.21875 1.46875 0.21875q0.875 0 1.25 -0.234375q0.390625 -0.234375 0.390625 -0.625q0 -0.328125 -0.265625 -0.5q-0.265625 -0.171875 -0.6875 -0.25q-0.421875 -0.09375 -0.953125 -0.15625q-0.515625 -0.078125 -1.03125 -0.203125q-0.515625 -0.125 -0.953125 -0.359375q-0.421875 -0.25 -0.6875 -0.65625q-0.25 -0.421875 -0.25 -1.09375q0 -0.75 0.421875 -1.296875q0.421875 -0.546875 1.1875 -0.84375q0.78125 -0.3125 1.828125 -0.3125q0.796875 0 1.59375 0.1875q0.8125 0.171875 1.34375 0.5l-0.703125 1.390625q-0.5625 -0.34375 -1.125 -0.46875q-0.5625 -0.125 -1.125 -0.125q-0.828125 0 -1.234375 0.25q-0.40625 0.25 -0.40625 0.625q0 0.359375 0.265625 0.546875q0.265625 0.171875 0.6875 0.28125q0.421875 0.09375 0.9375 0.15625q0.53125 0.0625 1.046875 0.203125q0.515625 0.125 0.9375 0.359375q0.4375 0.21875 0.703125 0.640625q0.265625 0.40625 0.265625 1.0625q0 0.734375 -0.4375 1.28125q-0.4375 0.53125 -1.234375 0.84375q-0.78125 0.296875 -1.875 0.296875z" fill-rule="nonzero"/></g><g filter="url(#shadowFilter-p.11)"><use xlink:href="#p.11" transform="matrix(1.0 0.0 0.0 1.0 0.0 2.0)"/></g><defs><filter id="shadowFilter-p.11" filterUnits="userSpaceOnUse"><feGaussianBlur in="SourceAlpha" stdDeviation="2.0" result="blur"/><feComponentTransfer in="blur" color-interpolation-filters="sRGB"><feFuncR type="linear" slope="0" intercept="0.0"/><feFuncG type="linear" slope="0" intercept="0.0"/><feFuncB type="linear" slope="0" intercept="0.0"/><feFuncA type="linear" slope="0.5" intercept="0"/></feComponentTransfer></filter></defs><g id="p.11"><path fill="#000000" fill-opacity="0.0" d="m80.95305 467.3098l0 73.13385" fill-rule="evenodd"/><path stroke="#000000" stroke-width="2.0" stroke-linejoin="round" stroke-linecap="butt" d="m80.95305 467.30984l0 66.27969" fill-rule="evenodd"/><path fill="#000000" stroke="#000000" stroke-width="2.0" stroke-linecap="butt" d="m80.95305 533.58954l-2.2491684 -2.2492065l2.2491684 6.1795654l2.2491684 -6.1795654z" fill-rule="evenodd"/></g><g filter="url(#shadowFilter-p.12)"><use xlink:href="#p.12" transform="matrix(1.0 0.0 0.0 1.0 0.0 2.0)"/></g><defs><filter id="shadowFilter-p.12" filterUnits="userSpaceOnUse"><feGaussianBlur in="SourceAlpha" stdDeviation="2.0" result="blur"/><feComponentTransfer in="blur" color-interpolation-filters="sRGB"><feFuncR type="linear" slope="0" intercept="0.0"/><feFuncG type="linear" slope="0" intercept="0.0"/><feFuncB type="linear" slope="0" intercept="0.0"/><feFuncA type="linear" slope="0.5" intercept="0"/></feComponentTransfer></filter></defs><g id="p.12"><path fill="#000000" fill-opacity="0.0" d="m359.1355 467.3098l228.0315 86.86615" fill-rule="evenodd"/><path stroke="#000000" stroke-width="2.0" stroke-linejoin="round" stroke-linecap="butt" d="m359.1355 467.30984l221.62634 84.42618" fill-rule="evenodd"/><path fill="#000000" stroke="#000000" stroke-width="2.0" stroke-linecap="butt" d="m580.76184 551.736l-2.9025269 1.3011475l6.5754395 0.097961426l-4.97406 -4.3016357z" fill-rule="evenodd"/></g><g filter="url(#shadowFilter-p.13)"><use xlink:href="#p.13" transform="matrix(1.0 0.0 0.0 1.0 0.0 2.0)"/></g><defs><filter id="shadowFilter-p.13" filterUnits="userSpaceOnUse"><feGaussianBlur in="SourceAlpha" stdDeviation="2.0" result="blur"/><feComponentTransfer in="blur" color-interpolation-filters="sRGB"><feFuncR type="linear" slope="0" intercept="0.0"/><feFuncG type="linear" slope="0" intercept="0.0"/><feFuncB type="linear" slope="0" intercept="0.0"/><feFuncA type="linear" slope="0.5" intercept="0"/></feComponentTransfer></filter></defs><g id="p.13"><path fill="#efefef" d="m9.771948 420.42795l0 0c0 -25.89215 31.868864 -46.881897 71.1811 -46.881897l0 0c39.31224 0 71.18111 20.989746 71.18111 46.881897l0 0c0 25.89215 -31.868866 46.881866 -71.18111 46.881866l0 0c-39.312237 0 -71.1811 -20.989716 -71.1811 -46.881866z" fill-rule="evenodd"/><path stroke="#000000" stroke-width="2.0" stroke-linejoin="round" stroke-linecap="butt" d="m9.771948 420.42795l0 0c0 -25.89215 31.868864 -46.881897 71.1811 -46.881897l0 0c39.31224 0 71.18111 20.989746 71.18111 46.881897l0 0c0 25.89215 -31.868866 46.881866 -71.18111 46.881866l0 0c-39.312237 0 -71.1811 -20.989716 -71.1811 -46.881866z" fill-rule="evenodd"/><path fill="#000000" d="m48.008175 425.50793l4.625 -10.265625l1.875 0l4.625 10.265625l-1.984375 0l-3.984375 -9.25l0.765625 0l-3.953125 9.25l-1.96875 0zm2.125 -2.375l0.515625 -1.5l5.546875 0l0.515625 1.5l-6.578125 0zm12.482361 2.484375q-0.984375 0 -1.890625 -0.25q-0.90625 -0.265625 -1.421875 -0.640625l0.703125 -1.390625q0.515625 0.34375 1.25 0.5625q0.734375 0.21875 1.46875 0.21875q0.875 0 1.25 -0.234375q0.3906212 -0.234375 0.3906212 -0.625q0 -0.328125 -0.265625 -0.5q-0.2656212 -0.171875 -0.6874962 -0.25q-0.421875 -0.09375 -0.953125 -0.15625q-0.515625 -0.078125 -1.03125 -0.203125q-0.515625 -0.125 -0.953125 -0.359375q-0.421875 -0.25 -0.6875 -0.65625q-0.25 -0.421875 -0.25 -1.09375q0 -0.75 0.421875 -1.296875q0.421875 -0.546875 1.1875 -0.84375q0.78125 -0.3125 1.828125 -0.3125q0.796875 0 1.5937462 0.1875q0.8125 0.171875 1.34375 0.5l-0.703125 1.390625q-0.5625 -0.34375 -1.125 -0.46875q-0.5624962 -0.125 -1.1249962 -0.125q-0.828125 0 -1.234375 0.25q-0.40625 0.25 -0.40625 0.625q0 0.359375 0.265625 0.546875q0.265625 0.171875 0.6875 0.28125q0.421875 0.09375 0.9375 0.15625q0.53125 0.0625 1.0468712 0.203125q0.515625 0.125 0.9375 0.359375q0.4375 0.21875 0.703125 0.640625q0.265625 0.40625 0.265625 1.0625q0 0.734375 -0.4375 1.28125q-0.4375 0.53125 -1.234375 0.84375q-0.7812462 0.296875 -1.8749962 0.296875zm7.5480003 0q-0.984375 0 -1.890625 -0.25q-0.90625 -0.265625 -1.421875 -0.640625l0.703125 -1.390625q0.515625 0.34375 1.25 0.5625q0.734375 0.21875 1.46875 0.21875q0.875 0 1.25 -0.234375q0.390625 -0.234375 0.390625 -0.625q0 -0.328125 -0.265625 -0.5q-0.265625 -0.171875 -0.6875 -0.25q-0.421875 -0.09375 -0.953125 -0.15625q-0.515625 -0.078125 -1.03125 -0.203125q-0.515625 -0.125 -0.953125 -0.359375q-0.421875 -0.25 -0.6875 -0.65625q-0.25 -0.421875 -0.25 -1.09375q0 -0.75 0.421875 -1.296875q0.421875 -0.546875 1.1875 -0.84375q0.78125 -0.3125 1.828125 -0.3125q0.796875 0 1.59375 0.1875q0.8125 0.171875 1.34375 0.5l-0.703125 1.390625q-0.5625 -0.34375 -1.125 -0.46875q-0.5625 -0.125 -1.125 -0.125q-0.828125 0 -1.234375 0.25q-0.40625 0.25 -0.40625 0.625q0 0.359375 0.265625 0.546875q0.265625 0.171875 0.6875 0.28125q0.421875 0.09375 0.9375 0.15625q0.53125 0.0625 1.046875 0.203125q0.515625 0.125 0.9375 0.359375q0.4375 0.21875 0.703125 0.640625q0.265625 0.40625 0.265625 1.0625q0 0.734375 -0.4375 1.28125q-0.4375 0.53125 -1.234375 0.84375q-0.78125 0.296875 -1.875 0.296875zm5.126129 -0.109375l0 -7.828125l1.828125 0l0 7.828125l-1.828125 0zm0.921875 -9.109375q-0.5 0 -0.84375 -0.328125q-0.328125 -0.328125 -0.328125 -0.78125q0 -0.46875 0.328125 -0.78125q0.34375 -0.3125 0.84375 -0.3125q0.515625 0 0.84375 0.296875q0.328125 0.296875 0.328125 0.75q0 0.484375 -0.328125 0.828125q-0.3125 0.328125 -0.84375 0.328125zm6.860672 12.0625q-1.078125 0 -2.125 -0.296875q-1.03125 -0.28125 -1.6875 -0.828125l0.828125 -1.375q0.5 0.421875 1.28125 0.671875q0.796875 0.265625 1.59375 0.265625q1.296875 0 1.890625 -0.59375q0.609375 -0.59375 0.609375 -1.78125l0 -1.390625l0.140625 -1.765625l-0.0625 -1.78125l0 -1.90625l1.75 0l0 6.640625q0 2.125 -1.09375 3.125q-1.078125 1.015625 -3.125 1.015625zm-0.234375 -3.3125q-1.109375 0 -2.015625 -0.46875q-0.90625 -0.46875 -1.421875 -1.3125q-0.515625 -0.859375 -0.515625 -2.0q0 -1.140625 0.515625 -1.984375q0.515625 -0.84375 1.421875 -1.3125q0.90625 -0.484375 2.015625 -0.484375q1.0 0 1.78125 0.40625q0.796875 0.390625 1.265625 1.234375q0.484375 0.828125 0.484375 2.140625q0 1.296875 -0.484375 2.140625q-0.46875 0.84375 -1.265625 1.25q-0.78125 0.390625 -1.78125 0.390625zm0.28125 -1.546875q0.6875 0 1.21875 -0.28125q0.546875 -0.296875 0.84375 -0.796875q0.3125 -0.5 0.3125 -1.15625q0 -0.671875 -0.3125 -1.171875q-0.296875 -0.5 -0.84375 -0.765625q-0.53125 -0.28125 -1.21875 -0.28125q-0.6875 0 -1.25 0.28125q-0.546875 0.265625 -0.84375 0.765625q-0.296875 0.5 -0.296875 1.171875q0 0.65625 0.296875 1.15625q0.296875 0.5 0.84375 0.796875q0.5625 0.28125 1.25 0.28125zm11.015228 -6.015625q0.9375 0 1.671875 0.375q0.75 0.359375 1.171875 1.125q0.421875 0.75 0.421875 1.9375l0 4.484375l-1.828125 0l0 -4.25q0 -1.046875 -0.5 -1.546875q-0.484375 -0.515625 -1.359375 -0.515625q-0.640625 0 -1.140625 0.265625q-0.5 0.25 -0.78125 0.78125q-0.265625 0.515625 -0.265625 1.3125l0 3.953125l-1.828125 0l0 -7.828125l1.75 0l0 2.109375l-0.3125 -0.640625q0.40625 -0.75 1.1875 -1.15625q0.78125 -0.40625 1.8125 -0.40625zm9.288605 8.03125q-1.296875 0 -2.28125 -0.515625q-0.96875 -0.53125 -1.5 -1.4375q-0.53125 -0.90625 -0.53125 -2.0625q0 -1.171875 0.515625 -2.078125q0.515625 -0.90625 1.421875 -1.421875q0.921875 -0.515625 2.109375 -0.515625q1.140625 0 2.03125 0.5q0.890625 0.5 1.40625 1.421875q0.515625 0.90625 0.515625 2.125q0 0.125 -0.015625 0.28125q0 0.140625 -0.015625 0.265625l-6.515625 0l0 -1.21875l5.546875 0l-0.71875 0.390625q0.015625 -0.6875 -0.28125 -1.1875q-0.296875 -0.515625 -0.796875 -0.8125q-0.5 -0.296875 -1.15625 -0.296875q-0.6875 0 -1.1875 0.296875q-0.5 0.296875 -0.796875 0.8125q-0.28125 0.515625 -0.28125 1.21875l0 0.296875q0 0.703125 0.3125 1.25q0.328125 0.546875 0.90625 0.84375q0.59375 0.28125 1.359375 0.28125q0.65625 0 1.1875 -0.203125q0.53125 -0.203125 0.9375 -0.640625l0.984375 1.125q-0.53125 0.609375 -1.328125 0.953125q-0.796875 0.328125 -1.828125 0.328125zm5.444351 -0.109375l0 -7.828125l1.75 0l0 2.15625l-0.21875 -0.625q0.359375 -0.796875 1.109375 -1.203125q0.765625 -0.421875 1.890625 -0.421875l0 1.75q-0.125 -0.03125 -0.234375 -0.03125q-0.09375 -0.015625 -0.1875 -0.015625q-1.046875 0 -1.671875 0.609375q-0.609375 0.609375 -0.609375 1.8125l0 3.796875l-1.828125 0z" fill-rule="nonzero"/></g></g></svg>